# Cozinha modular 270 x 220 cm - 72 paineis
# Unidade: 1 = 1 cm | eixo vertical: Y
mtllib cozinha_sem_portas.mtl

g Rodape_frontal
usemtl frentes_madeira
v 0.00000 0.00000 49.00000
v 270.00000 0.00000 49.00000
v 270.00000 0.00000 47.50000
v 0.00000 0.00000 47.50000
v 0.00000 15.00000 49.00000
v 270.00000 15.00000 49.00000
v 270.00000 15.00000 47.50000
v 0.00000 15.00000 47.50000
vn 0.0000 -1.0000 0.0000
vt 0.0000 -0.4900
vt 0.0000 -0.4750
vt 2.7000 -0.4750
vt 2.7000 -0.4900
f 1/1/1 4/2/1 3/3/1 2/4/1
vn 0.0000 1.0000 0.0000
vt 0.0000 -0.4900
vt 2.7000 -0.4900
vt 2.7000 -0.4750
vt 0.0000 -0.4750
f 5/5/2 6/6/2 7/7/2 8/8/2
vn 0.0000 0.0000 1.0000
vt 0.0000 0.0000
vt 2.7000 0.0000
vt 2.7000 0.1500
vt 0.0000 0.1500
f 1/9/3 2/10/3 6/11/3 5/12/3
vn 0.0000 0.0000 -1.0000
vt 0.0000 0.0000
vt 0.0000 0.1500
vt 2.7000 0.1500
vt 2.7000 0.0000
f 4/13/4 8/14/4 7/15/4 3/16/4
vn -1.0000 0.0000 0.0000
vt -0.4900 0.0000
vt -0.4900 0.1500
vt -0.4750 0.1500
vt -0.4750 0.0000
f 1/17/5 5/18/5 8/19/5 4/20/5
vn 1.0000 0.0000 0.0000
vt -0.4900 0.0000
vt -0.4750 0.0000
vt -0.4750 0.1500
vt -0.4900 0.1500
f 2/21/6 3/22/6 7/23/6 6/24/6

g Rodape_esquerdo
usemtl madeira
v 0.00000 0.00000 49.00000
v 1.50000 0.00000 49.00000
v 1.50000 0.00000 -0.00000
v 0.00000 0.00000 -0.00000
v 0.00000 15.00000 49.00000
v 1.50000 15.00000 49.00000
v 1.50000 15.00000 -0.00000
v 0.00000 15.00000 -0.00000
vn 0.0000 -1.0000 0.0000
vt 0.0000 -0.4900
vt 0.0000 0.0000
vt 0.0150 0.0000
vt 0.0150 -0.4900
f 9/25/7 12/26/7 11/27/7 10/28/7
vn 0.0000 1.0000 0.0000
vt 0.0000 -0.4900
vt 0.0150 -0.4900
vt 0.0150 0.0000
vt 0.0000 0.0000
f 13/29/8 14/30/8 15/31/8 16/32/8
vn 0.0000 0.0000 1.0000
vt 0.0000 0.0000
vt 0.0150 0.0000
vt 0.0150 0.1500
vt 0.0000 0.1500
f 9/33/9 10/34/9 14/35/9 13/36/9
vn 0.0000 0.0000 -1.0000
vt 0.0000 0.0000
vt 0.0000 0.1500
vt 0.0150 0.1500
vt 0.0150 0.0000
f 12/37/10 16/38/10 15/39/10 11/40/10
vn -1.0000 0.0000 0.0000
vt -0.4900 0.0000
vt -0.4900 0.1500
vt 0.0000 0.1500
vt 0.0000 0.0000
f 9/41/11 13/42/11 16/43/11 12/44/11
vn 1.0000 0.0000 0.0000
vt -0.4900 0.0000
vt 0.0000 0.0000
vt 0.0000 0.1500
vt -0.4900 0.1500
f 10/45/12 11/46/12 15/47/12 14/48/12

g Rodape_direito
usemtl madeira
v 268.50000 0.00000 49.00000
v 270.00000 0.00000 49.00000
v 270.00000 0.00000 -0.00000
v 268.50000 0.00000 -0.00000
v 268.50000 15.00000 49.00000
v 270.00000 15.00000 49.00000
v 270.00000 15.00000 -0.00000
v 268.50000 15.00000 -0.00000
vn 0.0000 -1.0000 0.0000
vt 2.6850 -0.4900
vt 2.6850 0.0000
vt 2.7000 0.0000
vt 2.7000 -0.4900
f 17/49/13 20/50/13 19/51/13 18/52/13
vn 0.0000 1.0000 0.0000
vt 2.6850 -0.4900
vt 2.7000 -0.4900
vt 2.7000 0.0000
vt 2.6850 0.0000
f 21/53/14 22/54/14 23/55/14 24/56/14
vn 0.0000 0.0000 1.0000
vt 2.6850 0.0000
vt 2.7000 0.0000
vt 2.7000 0.1500
vt 2.6850 0.1500
f 17/57/15 18/58/15 22/59/15 21/60/15
vn 0.0000 0.0000 -1.0000
vt 2.6850 0.0000
vt 2.6850 0.1500
vt 2.7000 0.1500
vt 2.7000 0.0000
f 20/61/16 24/62/16 23/63/16 19/64/16
vn -1.0000 0.0000 0.0000
vt -0.4900 0.0000
vt -0.4900 0.1500
vt 0.0000 0.1500
vt 0.0000 0.0000
f 17/65/17 21/66/17 24/67/17 20/68/17
vn 1.0000 0.0000 0.0000
vt -0.4900 0.0000
vt 0.0000 0.0000
vt 0.0000 0.1500
vt -0.4900 0.1500
f 18/69/18 19/70/18 23/71/18 22/72/18

g Apoio_rodape_0.685
usemtl madeira
v 68.50000 0.00000 47.00000
v 70.00000 0.00000 47.00000
v 70.00000 0.00000 2.00000
v 68.50000 0.00000 2.00000
v 68.50000 15.00000 47.00000
v 70.00000 15.00000 47.00000
v 70.00000 15.00000 2.00000
v 68.50000 15.00000 2.00000
vn 0.0000 -1.0000 0.0000
vt 0.6850 -0.4700
vt 0.6850 -0.0200
vt 0.7000 -0.0200
vt 0.7000 -0.4700
f 25/73/19 28/74/19 27/75/19 26/76/19
vn 0.0000 1.0000 0.0000
vt 0.6850 -0.4700
vt 0.7000 -0.4700
vt 0.7000 -0.0200
vt 0.6850 -0.0200
f 29/77/20 30/78/20 31/79/20 32/80/20
vn 0.0000 0.0000 1.0000
vt 0.6850 0.0000
vt 0.7000 0.0000
vt 0.7000 0.1500
vt 0.6850 0.1500
f 25/81/21 26/82/21 30/83/21 29/84/21
vn 0.0000 0.0000 -1.0000
vt 0.6850 0.0000
vt 0.6850 0.1500
vt 0.7000 0.1500
vt 0.7000 0.0000
f 28/85/22 32/86/22 31/87/22 27/88/22
vn -1.0000 0.0000 0.0000
vt -0.4700 0.0000
vt -0.4700 0.1500
vt -0.0200 0.1500
vt -0.0200 0.0000
f 25/89/23 29/90/23 32/91/23 28/92/23
vn 1.0000 0.0000 0.0000
vt -0.4700 0.0000
vt -0.0200 0.0000
vt -0.0200 0.1500
vt -0.4700 0.1500
f 26/93/24 27/94/24 31/95/24 30/96/24

g Apoio_rodape_1.885
usemtl madeira
v 188.50000 0.00000 47.00000
v 190.00000 0.00000 47.00000
v 190.00000 0.00000 2.00000
v 188.50000 0.00000 2.00000
v 188.50000 15.00000 47.00000
v 190.00000 15.00000 47.00000
v 190.00000 15.00000 2.00000
v 188.50000 15.00000 2.00000
vn 0.0000 -1.0000 0.0000
vt 1.8850 -0.4700
vt 1.8850 -0.0200
vt 1.9000 -0.0200
vt 1.9000 -0.4700
f 33/97/25 36/98/25 35/99/25 34/100/25
vn 0.0000 1.0000 0.0000
vt 1.8850 -0.4700
vt 1.9000 -0.4700
vt 1.9000 -0.0200
vt 1.8850 -0.0200
f 37/101/26 38/102/26 39/103/26 40/104/26
vn 0.0000 0.0000 1.0000
vt 1.8850 0.0000
vt 1.9000 0.0000
vt 1.9000 0.1500
vt 1.8850 0.1500
f 33/105/27 34/106/27 38/107/27 37/108/27
vn 0.0000 0.0000 -1.0000
vt 1.8850 0.0000
vt 1.8850 0.1500
vt 1.9000 0.1500
vt 1.9000 0.0000
f 36/109/28 40/110/28 39/111/28 35/112/28
vn -1.0000 0.0000 0.0000
vt -0.4700 0.0000
vt -0.4700 0.1500
vt -0.0200 0.1500
vt -0.0200 0.0000
f 33/113/29 37/114/29 40/115/29 36/116/29
vn 1.0000 0.0000 0.0000
vt -0.4700 0.0000
vt -0.0200 0.0000
vt -0.0200 0.1500
vt -0.4700 0.1500
f 34/117/30 35/118/30 39/119/30 38/120/30

g Torre_lateral_E
usemtl madeira
v 0.00000 15.00000 49.00000
v 1.50000 15.00000 49.00000
v 1.50000 15.00000 -0.00000
v 0.00000 15.00000 -0.00000
v 0.00000 92.00000 49.00000
v 1.50000 92.00000 49.00000
v 1.50000 92.00000 -0.00000
v 0.00000 92.00000 -0.00000
vn 0.0000 -1.0000 0.0000
vt 0.0000 -0.4900
vt 0.0000 0.0000
vt 0.0150 0.0000
vt 0.0150 -0.4900
f 41/121/31 44/122/31 43/123/31 42/124/31
vn 0.0000 1.0000 0.0000
vt 0.0000 -0.4900
vt 0.0150 -0.4900
vt 0.0150 0.0000
vt 0.0000 0.0000
f 45/125/32 46/126/32 47/127/32 48/128/32
vn 0.0000 0.0000 1.0000
vt 0.0000 0.1500
vt 0.0150 0.1500
vt 0.0150 0.9200
vt 0.0000 0.9200
f 41/129/33 42/130/33 46/131/33 45/132/33
vn 0.0000 0.0000 -1.0000
vt 0.0000 0.1500
vt 0.0000 0.9200
vt 0.0150 0.9200
vt 0.0150 0.1500
f 44/133/34 48/134/34 47/135/34 43/136/34
vn -1.0000 0.0000 0.0000
vt -0.4900 0.1500
vt -0.4900 0.9200
vt 0.0000 0.9200
vt 0.0000 0.1500
f 41/137/35 45/138/35 48/139/35 44/140/35
vn 1.0000 0.0000 0.0000
vt -0.4900 0.1500
vt 0.0000 0.1500
vt 0.0000 0.9200
vt -0.4900 0.9200
f 42/141/36 43/142/36 47/143/36 46/144/36

g Torre_lateral_D
usemtl madeira
v 68.50000 15.00000 49.00000
v 70.00000 15.00000 49.00000
v 70.00000 15.00000 -0.00000
v 68.50000 15.00000 -0.00000
v 68.50000 92.00000 49.00000
v 70.00000 92.00000 49.00000
v 70.00000 92.00000 -0.00000
v 68.50000 92.00000 -0.00000
vn 0.0000 -1.0000 0.0000
vt 0.6850 -0.4900
vt 0.6850 0.0000
vt 0.7000 0.0000
vt 0.7000 -0.4900
f 49/145/37 52/146/37 51/147/37 50/148/37
vn 0.0000 1.0000 0.0000
vt 0.6850 -0.4900
vt 0.7000 -0.4900
vt 0.7000 0.0000
vt 0.6850 0.0000
f 53/149/38 54/150/38 55/151/38 56/152/38
vn 0.0000 0.0000 1.0000
vt 0.6850 0.1500
vt 0.7000 0.1500
vt 0.7000 0.9200
vt 0.6850 0.9200
f 49/153/39 50/154/39 54/155/39 53/156/39
vn 0.0000 0.0000 -1.0000
vt 0.6850 0.1500
vt 0.6850 0.9200
vt 0.7000 0.9200
vt 0.7000 0.1500
f 52/157/40 56/158/40 55/159/40 51/160/40
vn -1.0000 0.0000 0.0000
vt -0.4900 0.1500
vt -0.4900 0.9200
vt 0.0000 0.9200
vt 0.0000 0.1500
f 49/161/41 53/162/41 56/163/41 52/164/41
vn 1.0000 0.0000 0.0000
vt -0.4900 0.1500
vt 0.0000 0.1500
vt 0.0000 0.9200
vt -0.4900 0.9200
f 50/165/42 51/166/42 55/167/42 54/168/42

g Torre_base
usemtl madeira
v 1.50000 15.00000 49.00000
v 68.50000 15.00000 49.00000
v 68.50000 15.00000 -0.00000
v 1.50000 15.00000 -0.00000
v 1.50000 16.50000 49.00000
v 68.50000 16.50000 49.00000
v 68.50000 16.50000 -0.00000
v 1.50000 16.50000 -0.00000
vn 0.0000 -1.0000 0.0000
vt 0.0150 -0.4900
vt 0.0150 0.0000
vt 0.6850 0.0000
vt 0.6850 -0.4900
f 57/169/43 60/170/43 59/171/43 58/172/43
vn 0.0000 1.0000 0.0000
vt 0.0150 -0.4900
vt 0.6850 -0.4900
vt 0.6850 0.0000
vt 0.0150 0.0000
f 61/173/44 62/174/44 63/175/44 64/176/44
vn 0.0000 0.0000 1.0000
vt 0.0150 0.1500
vt 0.6850 0.1500
vt 0.6850 0.1650
vt 0.0150 0.1650
f 57/177/45 58/178/45 62/179/45 61/180/45
vn 0.0000 0.0000 -1.0000
vt 0.0150 0.1500
vt 0.0150 0.1650
vt 0.6850 0.1650
vt 0.6850 0.1500
f 60/181/46 64/182/46 63/183/46 59/184/46
vn -1.0000 0.0000 0.0000
vt -0.4900 0.1500
vt -0.4900 0.1650
vt 0.0000 0.1650
vt 0.0000 0.1500
f 57/185/47 61/186/47 64/187/47 60/188/47
vn 1.0000 0.0000 0.0000
vt -0.4900 0.1500
vt 0.0000 0.1500
vt 0.0000 0.1650
vt -0.4900 0.1650
f 58/189/48 59/190/48 63/191/48 62/192/48

g Torre_fundo
usemtl fundo
v 1.50000 16.50000 0.60000
v 68.50000 16.50000 0.60000
v 68.50000 16.50000 -0.00000
v 1.50000 16.50000 -0.00000
v 1.50000 92.00000 0.60000
v 68.50000 92.00000 0.60000
v 68.50000 92.00000 -0.00000
v 1.50000 92.00000 -0.00000
vn 0.0000 -1.0000 0.0000
vt 0.0150 -0.0060
vt 0.0150 0.0000
vt 0.6850 0.0000
vt 0.6850 -0.0060
f 65/193/49 68/194/49 67/195/49 66/196/49
vn 0.0000 1.0000 0.0000
vt 0.0150 -0.0060
vt 0.6850 -0.0060
vt 0.6850 0.0000
vt 0.0150 0.0000
f 69/197/50 70/198/50 71/199/50 72/200/50
vn 0.0000 0.0000 1.0000
vt 0.0150 0.1650
vt 0.6850 0.1650
vt 0.6850 0.9200
vt 0.0150 0.9200
f 65/201/51 66/202/51 70/203/51 69/204/51
vn 0.0000 0.0000 -1.0000
vt 0.0150 0.1650
vt 0.0150 0.9200
vt 0.6850 0.9200
vt 0.6850 0.1650
f 68/205/52 72/206/52 71/207/52 67/208/52
vn -1.0000 0.0000 0.0000
vt -0.0060 0.1650
vt -0.0060 0.9200
vt 0.0000 0.9200
vt 0.0000 0.1650
f 65/209/53 69/210/53 72/211/53 68/212/53
vn 1.0000 0.0000 0.0000
vt -0.0060 0.1650
vt 0.0000 0.1650
vt 0.0000 0.9200
vt -0.0060 0.9200
f 66/213/54 67/214/54 71/215/54 70/216/54

g Balcao_120_lateral_E
usemtl madeira
v 70.00000 15.00000 49.00000
v 71.50000 15.00000 49.00000
v 71.50000 15.00000 -0.00000
v 70.00000 15.00000 -0.00000
v 70.00000 92.00000 49.00000
v 71.50000 92.00000 49.00000
v 71.50000 92.00000 -0.00000
v 70.00000 92.00000 -0.00000
vn 0.0000 -1.0000 0.0000
vt 0.7000 -0.4900
vt 0.7000 0.0000
vt 0.7150 0.0000
vt 0.7150 -0.4900
f 73/217/55 76/218/55 75/219/55 74/220/55
vn 0.0000 1.0000 0.0000
vt 0.7000 -0.4900
vt 0.7150 -0.4900
vt 0.7150 0.0000
vt 0.7000 0.0000
f 77/221/56 78/222/56 79/223/56 80/224/56
vn 0.0000 0.0000 1.0000
vt 0.7000 0.1500
vt 0.7150 0.1500
vt 0.7150 0.9200
vt 0.7000 0.9200
f 73/225/57 74/226/57 78/227/57 77/228/57
vn 0.0000 0.0000 -1.0000
vt 0.7000 0.1500
vt 0.7000 0.9200
vt 0.7150 0.9200
vt 0.7150 0.1500
f 76/229/58 80/230/58 79/231/58 75/232/58
vn -1.0000 0.0000 0.0000
vt -0.4900 0.1500
vt -0.4900 0.9200
vt 0.0000 0.9200
vt 0.0000 0.1500
f 73/233/59 77/234/59 80/235/59 76/236/59
vn 1.0000 0.0000 0.0000
vt -0.4900 0.1500
vt 0.0000 0.1500
vt 0.0000 0.9200
vt -0.4900 0.9200
f 74/237/60 75/238/60 79/239/60 78/240/60

g Balcao_120_lateral_D
usemtl madeira
v 188.50000 15.00000 49.00000
v 190.00000 15.00000 49.00000
v 190.00000 15.00000 -0.00000
v 188.50000 15.00000 -0.00000
v 188.50000 92.00000 49.00000
v 190.00000 92.00000 49.00000
v 190.00000 92.00000 -0.00000
v 188.50000 92.00000 -0.00000
vn 0.0000 -1.0000 0.0000
vt 1.8850 -0.4900
vt 1.8850 0.0000
vt 1.9000 0.0000
vt 1.9000 -0.4900
f 81/241/61 84/242/61 83/243/61 82/244/61
vn 0.0000 1.0000 0.0000
vt 1.8850 -0.4900
vt 1.9000 -0.4900
vt 1.9000 0.0000
vt 1.8850 0.0000
f 85/245/62 86/246/62 87/247/62 88/248/62
vn 0.0000 0.0000 1.0000
vt 1.8850 0.1500
vt 1.9000 0.1500
vt 1.9000 0.9200
vt 1.8850 0.9200
f 81/249/63 82/250/63 86/251/63 85/252/63
vn 0.0000 0.0000 -1.0000
vt 1.8850 0.1500
vt 1.8850 0.9200
vt 1.9000 0.9200
vt 1.9000 0.1500
f 84/253/64 88/254/64 87/255/64 83/256/64
vn -1.0000 0.0000 0.0000
vt -0.4900 0.1500
vt -0.4900 0.9200
vt 0.0000 0.9200
vt 0.0000 0.1500
f 81/257/65 85/258/65 88/259/65 84/260/65
vn 1.0000 0.0000 0.0000
vt -0.4900 0.1500
vt 0.0000 0.1500
vt 0.0000 0.9200
vt -0.4900 0.9200
f 82/261/66 83/262/66 87/263/66 86/264/66

g Balcao_120_base
usemtl madeira
v 71.50000 15.00000 49.00000
v 188.50000 15.00000 49.00000
v 188.50000 15.00000 -0.00000
v 71.50000 15.00000 -0.00000
v 71.50000 16.50000 49.00000
v 188.50000 16.50000 49.00000
v 188.50000 16.50000 -0.00000
v 71.50000 16.50000 -0.00000
vn 0.0000 -1.0000 0.0000
vt 0.7150 -0.4900
vt 0.7150 0.0000
vt 1.8850 0.0000
vt 1.8850 -0.4900
f 89/265/67 92/266/67 91/267/67 90/268/67
vn 0.0000 1.0000 0.0000
vt 0.7150 -0.4900
vt 1.8850 -0.4900
vt 1.8850 0.0000
vt 0.7150 0.0000
f 93/269/68 94/270/68 95/271/68 96/272/68
vn 0.0000 0.0000 1.0000
vt 0.7150 0.1500
vt 1.8850 0.1500
vt 1.8850 0.1650
vt 0.7150 0.1650
f 89/273/69 90/274/69 94/275/69 93/276/69
vn 0.0000 0.0000 -1.0000
vt 0.7150 0.1500
vt 0.7150 0.1650
vt 1.8850 0.1650
vt 1.8850 0.1500
f 92/277/70 96/278/70 95/279/70 91/280/70
vn -1.0000 0.0000 0.0000
vt -0.4900 0.1500
vt -0.4900 0.1650
vt 0.0000 0.1650
vt 0.0000 0.1500
f 89/281/71 93/282/71 96/283/71 92/284/71
vn 1.0000 0.0000 0.0000
vt -0.4900 0.1500
vt 0.0000 0.1500
vt 0.0000 0.1650
vt -0.4900 0.1650
f 90/285/72 91/286/72 95/287/72 94/288/72

g Balcao_120_fundo
usemtl fundo
v 71.50000 16.50000 0.60000
v 188.50000 16.50000 0.60000
v 188.50000 16.50000 -0.00000
v 71.50000 16.50000 -0.00000
v 71.50000 92.00000 0.60000
v 188.50000 92.00000 0.60000
v 188.50000 92.00000 -0.00000
v 71.50000 92.00000 -0.00000
vn 0.0000 -1.0000 0.0000
vt 0.7150 -0.0060
vt 0.7150 0.0000
vt 1.8850 0.0000
vt 1.8850 -0.0060
f 97/289/73 100/290/73 99/291/73 98/292/73
vn 0.0000 1.0000 0.0000
vt 0.7150 -0.0060
vt 1.8850 -0.0060
vt 1.8850 0.0000
vt 0.7150 0.0000
f 101/293/74 102/294/74 103/295/74 104/296/74
vn 0.0000 0.0000 1.0000
vt 0.7150 0.1650
vt 1.8850 0.1650
vt 1.8850 0.9200
vt 0.7150 0.9200
f 97/297/75 98/298/75 102/299/75 101/300/75
vn 0.0000 0.0000 -1.0000
vt 0.7150 0.1650
vt 0.7150 0.9200
vt 1.8850 0.9200
vt 1.8850 0.1650
f 100/301/76 104/302/76 103/303/76 99/304/76
vn -1.0000 0.0000 0.0000
vt -0.0060 0.1650
vt -0.0060 0.9200
vt 0.0000 0.9200
vt 0.0000 0.1650
f 97/305/77 101/306/77 104/307/77 100/308/77
vn 1.0000 0.0000 0.0000
vt -0.0060 0.1650
vt 0.0000 0.1650
vt 0.0000 0.9200
vt -0.0060 0.9200
f 98/309/78 99/310/78 103/311/78 102/312/78

g Balcao_120_travessa_frontal
usemtl madeira
v 71.50000 89.00000 49.00000
v 188.50000 89.00000 49.00000
v 188.50000 89.00000 44.50000
v 71.50000 89.00000 44.50000
v 71.50000 92.00000 49.00000
v 188.50000 92.00000 49.00000
v 188.50000 92.00000 44.50000
v 71.50000 92.00000 44.50000
vn 0.0000 -1.0000 0.0000
vt 0.7150 -0.4900
vt 0.7150 -0.4450
vt 1.8850 -0.4450
vt 1.8850 -0.4900
f 105/313/79 108/314/79 107/315/79 106/316/79
vn 0.0000 1.0000 0.0000
vt 0.7150 -0.4900
vt 1.8850 -0.4900
vt 1.8850 -0.4450
vt 0.7150 -0.4450
f 109/317/80 110/318/80 111/319/80 112/320/80
vn 0.0000 0.0000 1.0000
vt 0.7150 0.8900
vt 1.8850 0.8900
vt 1.8850 0.9200
vt 0.7150 0.9200
f 105/321/81 106/322/81 110/323/81 109/324/81
vn 0.0000 0.0000 -1.0000
vt 0.7150 0.8900
vt 0.7150 0.9200
vt 1.8850 0.9200
vt 1.8850 0.8900
f 108/325/82 112/326/82 111/327/82 107/328/82
vn -1.0000 0.0000 0.0000
vt -0.4900 0.8900
vt -0.4900 0.9200
vt -0.4450 0.9200
vt -0.4450 0.8900
f 105/329/83 109/330/83 112/331/83 108/332/83
vn 1.0000 0.0000 0.0000
vt -0.4900 0.8900
vt -0.4450 0.8900
vt -0.4450 0.9200
vt -0.4900 0.9200
f 106/333/84 107/334/84 111/335/84 110/336/84

g Balcao_120_travessa_traseira
usemtl madeira
v 71.50000 89.00000 7.00000
v 188.50000 89.00000 7.00000
v 188.50000 89.00000 -0.00000
v 71.50000 89.00000 -0.00000
v 71.50000 92.00000 7.00000
v 188.50000 92.00000 7.00000
v 188.50000 92.00000 -0.00000
v 71.50000 92.00000 -0.00000
vn 0.0000 -1.0000 0.0000
vt 0.7150 -0.0700
vt 0.7150 0.0000
vt 1.8850 0.0000
vt 1.8850 -0.0700
f 113/337/85 116/338/85 115/339/85 114/340/85
vn 0.0000 1.0000 0.0000
vt 0.7150 -0.0700
vt 1.8850 -0.0700
vt 1.8850 0.0000
vt 0.7150 0.0000
f 117/341/86 118/342/86 119/343/86 120/344/86
vn 0.0000 0.0000 1.0000
vt 0.7150 0.8900
vt 1.8850 0.8900
vt 1.8850 0.9200
vt 0.7150 0.9200
f 113/345/87 114/346/87 118/347/87 117/348/87
vn 0.0000 0.0000 -1.0000
vt 0.7150 0.8900
vt 0.7150 0.9200
vt 1.8850 0.9200
vt 1.8850 0.8900
f 116/349/88 120/350/88 119/351/88 115/352/88
vn -1.0000 0.0000 0.0000
vt -0.0700 0.8900
vt -0.0700 0.9200
vt 0.0000 0.9200
vt 0.0000 0.8900
f 113/353/89 117/354/89 120/355/89 116/356/89
vn 1.0000 0.0000 0.0000
vt -0.0700 0.8900
vt 0.0000 0.8900
vt 0.0000 0.9200
vt -0.0700 0.9200
f 114/357/90 115/358/90 119/359/90 118/360/90

g Balcao_80_lateral_E
usemtl madeira
v 190.00000 15.00000 49.00000
v 191.50000 15.00000 49.00000
v 191.50000 15.00000 -0.00000
v 190.00000 15.00000 -0.00000
v 190.00000 92.00000 49.00000
v 191.50000 92.00000 49.00000
v 191.50000 92.00000 -0.00000
v 190.00000 92.00000 -0.00000
vn 0.0000 -1.0000 0.0000
vt 1.9000 -0.4900
vt 1.9000 0.0000
vt 1.9150 0.0000
vt 1.9150 -0.4900
f 121/361/91 124/362/91 123/363/91 122/364/91
vn 0.0000 1.0000 0.0000
vt 1.9000 -0.4900
vt 1.9150 -0.4900
vt 1.9150 0.0000
vt 1.9000 0.0000
f 125/365/92 126/366/92 127/367/92 128/368/92
vn 0.0000 0.0000 1.0000
vt 1.9000 0.1500
vt 1.9150 0.1500
vt 1.9150 0.9200
vt 1.9000 0.9200
f 121/369/93 122/370/93 126/371/93 125/372/93
vn 0.0000 0.0000 -1.0000
vt 1.9000 0.1500
vt 1.9000 0.9200
vt 1.9150 0.9200
vt 1.9150 0.1500
f 124/373/94 128/374/94 127/375/94 123/376/94
vn -1.0000 0.0000 0.0000
vt -0.4900 0.1500
vt -0.4900 0.9200
vt 0.0000 0.9200
vt 0.0000 0.1500
f 121/377/95 125/378/95 128/379/95 124/380/95
vn 1.0000 0.0000 0.0000
vt -0.4900 0.1500
vt 0.0000 0.1500
vt 0.0000 0.9200
vt -0.4900 0.9200
f 122/381/96 123/382/96 127/383/96 126/384/96

g Balcao_80_lateral_D
usemtl madeira
v 268.50000 15.00000 49.00000
v 270.00000 15.00000 49.00000
v 270.00000 15.00000 -0.00000
v 268.50000 15.00000 -0.00000
v 268.50000 92.00000 49.00000
v 270.00000 92.00000 49.00000
v 270.00000 92.00000 -0.00000
v 268.50000 92.00000 -0.00000
vn 0.0000 -1.0000 0.0000
vt 2.6850 -0.4900
vt 2.6850 0.0000
vt 2.7000 0.0000
vt 2.7000 -0.4900
f 129/385/97 132/386/97 131/387/97 130/388/97
vn 0.0000 1.0000 0.0000
vt 2.6850 -0.4900
vt 2.7000 -0.4900
vt 2.7000 0.0000
vt 2.6850 0.0000
f 133/389/98 134/390/98 135/391/98 136/392/98
vn 0.0000 0.0000 1.0000
vt 2.6850 0.1500
vt 2.7000 0.1500
vt 2.7000 0.9200
vt 2.6850 0.9200
f 129/393/99 130/394/99 134/395/99 133/396/99
vn 0.0000 0.0000 -1.0000
vt 2.6850 0.1500
vt 2.6850 0.9200
vt 2.7000 0.9200
vt 2.7000 0.1500
f 132/397/100 136/398/100 135/399/100 131/400/100
vn -1.0000 0.0000 0.0000
vt -0.4900 0.1500
vt -0.4900 0.9200
vt 0.0000 0.9200
vt 0.0000 0.1500
f 129/401/101 133/402/101 136/403/101 132/404/101
vn 1.0000 0.0000 0.0000
vt -0.4900 0.1500
vt 0.0000 0.1500
vt 0.0000 0.9200
vt -0.4900 0.9200
f 130/405/102 131/406/102 135/407/102 134/408/102

g Balcao_80_base
usemtl madeira
v 191.50000 15.00000 49.00000
v 268.50000 15.00000 49.00000
v 268.50000 15.00000 -0.00000
v 191.50000 15.00000 -0.00000
v 191.50000 16.50000 49.00000
v 268.50000 16.50000 49.00000
v 268.50000 16.50000 -0.00000
v 191.50000 16.50000 -0.00000
vn 0.0000 -1.0000 0.0000
vt 1.9150 -0.4900
vt 1.9150 0.0000
vt 2.6850 0.0000
vt 2.6850 -0.4900
f 137/409/103 140/410/103 139/411/103 138/412/103
vn 0.0000 1.0000 0.0000
vt 1.9150 -0.4900
vt 2.6850 -0.4900
vt 2.6850 0.0000
vt 1.9150 0.0000
f 141/413/104 142/414/104 143/415/104 144/416/104
vn 0.0000 0.0000 1.0000
vt 1.9150 0.1500
vt 2.6850 0.1500
vt 2.6850 0.1650
vt 1.9150 0.1650
f 137/417/105 138/418/105 142/419/105 141/420/105
vn 0.0000 0.0000 -1.0000
vt 1.9150 0.1500
vt 1.9150 0.1650
vt 2.6850 0.1650
vt 2.6850 0.1500
f 140/421/106 144/422/106 143/423/106 139/424/106
vn -1.0000 0.0000 0.0000
vt -0.4900 0.1500
vt -0.4900 0.1650
vt 0.0000 0.1650
vt 0.0000 0.1500
f 137/425/107 141/426/107 144/427/107 140/428/107
vn 1.0000 0.0000 0.0000
vt -0.4900 0.1500
vt 0.0000 0.1500
vt 0.0000 0.1650
vt -0.4900 0.1650
f 138/429/108 139/430/108 143/431/108 142/432/108

g Balcao_80_fundo
usemtl fundo
v 191.50000 16.50000 0.60000
v 268.50000 16.50000 0.60000
v 268.50000 16.50000 -0.00000
v 191.50000 16.50000 -0.00000
v 191.50000 92.00000 0.60000
v 268.50000 92.00000 0.60000
v 268.50000 92.00000 -0.00000
v 191.50000 92.00000 -0.00000
vn 0.0000 -1.0000 0.0000
vt 1.9150 -0.0060
vt 1.9150 0.0000
vt 2.6850 0.0000
vt 2.6850 -0.0060
f 145/433/109 148/434/109 147/435/109 146/436/109
vn 0.0000 1.0000 0.0000
vt 1.9150 -0.0060
vt 2.6850 -0.0060
vt 2.6850 0.0000
vt 1.9150 0.0000
f 149/437/110 150/438/110 151/439/110 152/440/110
vn 0.0000 0.0000 1.0000
vt 1.9150 0.1650
vt 2.6850 0.1650
vt 2.6850 0.9200
vt 1.9150 0.9200
f 145/441/111 146/442/111 150/443/111 149/444/111
vn 0.0000 0.0000 -1.0000
vt 1.9150 0.1650
vt 1.9150 0.9200
vt 2.6850 0.9200
vt 2.6850 0.1650
f 148/445/112 152/446/112 151/447/112 147/448/112
vn -1.0000 0.0000 0.0000
vt -0.0060 0.1650
vt -0.0060 0.9200
vt 0.0000 0.9200
vt 0.0000 0.1650
f 145/449/113 149/450/113 152/451/113 148/452/113
vn 1.0000 0.0000 0.0000
vt -0.0060 0.1650
vt 0.0000 0.1650
vt 0.0000 0.9200
vt -0.0060 0.9200
f 146/453/114 147/454/114 151/455/114 150/456/114

g Balcao_80_travessa_frontal
usemtl madeira
v 191.50000 89.00000 49.00000
v 268.50000 89.00000 49.00000
v 268.50000 89.00000 44.50000
v 191.50000 89.00000 44.50000
v 191.50000 92.00000 49.00000
v 268.50000 92.00000 49.00000
v 268.50000 92.00000 44.50000
v 191.50000 92.00000 44.50000
vn 0.0000 -1.0000 0.0000
vt 1.9150 -0.4900
vt 1.9150 -0.4450
vt 2.6850 -0.4450
vt 2.6850 -0.4900
f 153/457/115 156/458/115 155/459/115 154/460/115
vn 0.0000 1.0000 0.0000
vt 1.9150 -0.4900
vt 2.6850 -0.4900
vt 2.6850 -0.4450
vt 1.9150 -0.4450
f 157/461/116 158/462/116 159/463/116 160/464/116
vn 0.0000 0.0000 1.0000
vt 1.9150 0.8900
vt 2.6850 0.8900
vt 2.6850 0.9200
vt 1.9150 0.9200
f 153/465/117 154/466/117 158/467/117 157/468/117
vn 0.0000 0.0000 -1.0000
vt 1.9150 0.8900
vt 1.9150 0.9200
vt 2.6850 0.9200
vt 2.6850 0.8900
f 156/469/118 160/470/118 159/471/118 155/472/118
vn -1.0000 0.0000 0.0000
vt -0.4900 0.8900
vt -0.4900 0.9200
vt -0.4450 0.9200
vt -0.4450 0.8900
f 153/473/119 157/474/119 160/475/119 156/476/119
vn 1.0000 0.0000 0.0000
vt -0.4900 0.8900
vt -0.4450 0.8900
vt -0.4450 0.9200
vt -0.4900 0.9200
f 154/477/120 155/478/120 159/479/120 158/480/120

g Balcao_80_travessa_traseira
usemtl madeira
v 191.50000 89.00000 7.00000
v 268.50000 89.00000 7.00000
v 268.50000 89.00000 -0.00000
v 191.50000 89.00000 -0.00000
v 191.50000 92.00000 7.00000
v 268.50000 92.00000 7.00000
v 268.50000 92.00000 -0.00000
v 191.50000 92.00000 -0.00000
vn 0.0000 -1.0000 0.0000
vt 1.9150 -0.0700
vt 1.9150 0.0000
vt 2.6850 0.0000
vt 2.6850 -0.0700
f 161/481/121 164/482/121 163/483/121 162/484/121
vn 0.0000 1.0000 0.0000
vt 1.9150 -0.0700
vt 2.6850 -0.0700
vt 2.6850 0.0000
vt 1.9150 0.0000
f 165/485/122 166/486/122 167/487/122 168/488/122
vn 0.0000 0.0000 1.0000
vt 1.9150 0.8900
vt 2.6850 0.8900
vt 2.6850 0.9200
vt 1.9150 0.9200
f 161/489/123 162/490/123 166/491/123 165/492/123
vn 0.0000 0.0000 -1.0000
vt 1.9150 0.8900
vt 1.9150 0.9200
vt 2.6850 0.9200
vt 2.6850 0.8900
f 164/493/124 168/494/124 167/495/124 163/496/124
vn -1.0000 0.0000 0.0000
vt -0.0700 0.8900
vt -0.0700 0.9200
vt 0.0000 0.9200
vt 0.0000 0.8900
f 161/497/125 165/498/125 168/499/125 164/500/125
vn 1.0000 0.0000 0.0000
vt -0.0700 0.8900
vt 0.0000 0.8900
vt 0.0000 0.9200
vt -0.0700 0.9200
f 162/501/126 163/502/126 167/503/126 166/504/126

g Torre_prateleira_nicho
usemtl madeira
v 1.50000 52.50000 49.00000
v 68.50000 52.50000 49.00000
v 68.50000 52.50000 -0.00000
v 1.50000 52.50000 -0.00000
v 1.50000 54.00000 49.00000
v 68.50000 54.00000 49.00000
v 68.50000 54.00000 -0.00000
v 1.50000 54.00000 -0.00000
vn 0.0000 -1.0000 0.0000
vt 0.0150 -0.4900
vt 0.0150 0.0000
vt 0.6850 0.0000
vt 0.6850 -0.4900
f 169/505/127 172/506/127 171/507/127 170/508/127
vn 0.0000 1.0000 0.0000
vt 0.0150 -0.4900
vt 0.6850 -0.4900
vt 0.6850 0.0000
vt 0.0150 0.0000
f 173/509/128 174/510/128 175/511/128 176/512/128
vn 0.0000 0.0000 1.0000
vt 0.0150 0.5250
vt 0.6850 0.5250
vt 0.6850 0.5400
vt 0.0150 0.5400
f 169/513/129 170/514/129 174/515/129 173/516/129
vn 0.0000 0.0000 -1.0000
vt 0.0150 0.5250
vt 0.0150 0.5400
vt 0.6850 0.5400
vt 0.6850 0.5250
f 172/517/130 176/518/130 175/519/130 171/520/130
vn -1.0000 0.0000 0.0000
vt -0.4900 0.5250
vt -0.4900 0.5400
vt 0.0000 0.5400
vt 0.0000 0.5250
f 169/521/131 173/522/131 176/523/131 172/524/131
vn 1.0000 0.0000 0.0000
vt -0.4900 0.5250
vt 0.0000 0.5250
vt 0.0000 0.5400
vt -0.4900 0.5400
f 170/525/132 171/526/132 175/527/132 174/528/132

g Torre_tampo_25mm
usemtl frentes_madeira
v 0.00000 92.00000 52.00000
v 70.00000 92.00000 52.00000
v 70.00000 92.00000 -0.00000
v 0.00000 92.00000 -0.00000
v 0.00000 94.50000 52.00000
v 70.00000 94.50000 52.00000
v 70.00000 94.50000 -0.00000
v 0.00000 94.50000 -0.00000
vn 0.0000 -1.0000 0.0000
vt 0.0000 -0.5200
vt 0.0000 0.0000
vt 0.7000 0.0000
vt 0.7000 -0.5200
f 177/529/133 180/530/133 179/531/133 178/532/133
vn 0.0000 1.0000 0.0000
vt 0.0000 -0.5200
vt 0.7000 -0.5200
vt 0.7000 0.0000
vt 0.0000 0.0000
f 181/533/134 182/534/134 183/535/134 184/536/134
vn 0.0000 0.0000 1.0000
vt 0.0000 0.9200
vt 0.7000 0.9200
vt 0.7000 0.9450
vt 0.0000 0.9450
f 177/537/135 178/538/135 182/539/135 181/540/135
vn 0.0000 0.0000 -1.0000
vt 0.0000 0.9200
vt 0.0000 0.9450
vt 0.7000 0.9450
vt 0.7000 0.9200
f 180/541/136 184/542/136 183/543/136 179/544/136
vn -1.0000 0.0000 0.0000
vt -0.5200 0.9200
vt -0.5200 0.9450
vt 0.0000 0.9450
vt 0.0000 0.9200
f 177/545/137 181/546/137 184/547/137 180/548/137
vn 1.0000 0.0000 0.0000
vt -0.5200 0.9200
vt 0.0000 0.9200
vt 0.0000 0.9450
vt -0.5200 0.9450
f 178/549/138 179/550/138 183/551/138 182/552/138

g Balcao_80_tampo_25mm
usemtl frentes_madeira
v 190.00000 92.00000 52.00000
v 270.00000 92.00000 52.00000
v 270.00000 92.00000 -0.00000
v 190.00000 92.00000 -0.00000
v 190.00000 94.50000 52.00000
v 270.00000 94.50000 52.00000
v 270.00000 94.50000 -0.00000
v 190.00000 94.50000 -0.00000
vn 0.0000 -1.0000 0.0000
vt 1.9000 -0.5200
vt 1.9000 0.0000
vt 2.7000 0.0000
vt 2.7000 -0.5200
f 185/553/139 188/554/139 187/555/139 186/556/139
vn 0.0000 1.0000 0.0000
vt 1.9000 -0.5200
vt 2.7000 -0.5200
vt 2.7000 0.0000
vt 1.9000 0.0000
f 189/557/140 190/558/140 191/559/140 192/560/140
vn 0.0000 0.0000 1.0000
vt 1.9000 0.9200
vt 2.7000 0.9200
vt 2.7000 0.9450
vt 1.9000 0.9450
f 185/561/141 186/562/141 190/563/141 189/564/141
vn 0.0000 0.0000 -1.0000
vt 1.9000 0.9200
vt 1.9000 0.9450
vt 2.7000 0.9450
vt 2.7000 0.9200
f 188/565/142 192/566/142 191/567/142 187/568/142
vn -1.0000 0.0000 0.0000
vt -0.5200 0.9200
vt -0.5200 0.9450
vt 0.0000 0.9450
vt 0.0000 0.9200
f 185/569/143 189/570/143 192/571/143 188/572/143
vn 1.0000 0.0000 0.0000
vt -0.5200 0.9200
vt 0.0000 0.9200
vt 0.0000 0.9450
vt -0.5200 0.9450
f 186/573/144 187/574/144 191/575/144 190/576/144

g Balcao_120_regua_traseira
usemtl frentes_madeira
v 70.00000 92.00000 9.00000
v 190.00000 92.00000 9.00000
v 190.00000 92.00000 -0.00000
v 70.00000 92.00000 -0.00000
v 70.00000 94.50000 9.00000
v 190.00000 94.50000 9.00000
v 190.00000 94.50000 -0.00000
v 70.00000 94.50000 -0.00000
vn 0.0000 -1.0000 0.0000
vt 0.7000 -0.0900
vt 0.7000 0.0000
vt 1.9000 0.0000
vt 1.9000 -0.0900
f 193/577/145 196/578/145 195/579/145 194/580/145
vn 0.0000 1.0000 0.0000
vt 0.7000 -0.0900
vt 1.9000 -0.0900
vt 1.9000 0.0000
vt 0.7000 0.0000
f 197/581/146 198/582/146 199/583/146 200/584/146
vn 0.0000 0.0000 1.0000
vt 0.7000 0.9200
vt 1.9000 0.9200
vt 1.9000 0.9450
vt 0.7000 0.9450
f 193/585/147 194/586/147 198/587/147 197/588/147
vn 0.0000 0.0000 -1.0000
vt 0.7000 0.9200
vt 0.7000 0.9450
vt 1.9000 0.9450
vt 1.9000 0.9200
f 196/589/148 200/590/148 199/591/148 195/592/148
vn -1.0000 0.0000 0.0000
vt -0.0900 0.9200
vt -0.0900 0.9450
vt 0.0000 0.9450
vt 0.0000 0.9200
f 193/593/149 197/594/149 200/595/149 196/596/149
vn 1.0000 0.0000 0.0000
vt -0.0900 0.9200
vt 0.0000 0.9200
vt 0.0000 0.9450
vt -0.0900 0.9450
f 194/597/150 195/598/150 199/599/150 198/600/150

g Balcao_80_espelho
usemtl frentes_madeira
v 190.00000 94.50000 1.80000
v 270.00000 94.50000 1.80000
v 270.00000 94.50000 -0.00000
v 190.00000 94.50000 -0.00000
v 190.00000 102.00000 1.80000
v 270.00000 102.00000 1.80000
v 270.00000 102.00000 -0.00000
v 190.00000 102.00000 -0.00000
vn 0.0000 -1.0000 0.0000
vt 1.9000 -0.0180
vt 1.9000 0.0000
vt 2.7000 0.0000
vt 2.7000 -0.0180
f 201/601/151 204/602/151 203/603/151 202/604/151
vn 0.0000 1.0000 0.0000
vt 1.9000 -0.0180
vt 2.7000 -0.0180
vt 2.7000 0.0000
vt 1.9000 0.0000
f 205/605/152 206/606/152 207/607/152 208/608/152
vn 0.0000 0.0000 1.0000
vt 1.9000 0.9450
vt 2.7000 0.9450
vt 2.7000 1.0200
vt 1.9000 1.0200
f 201/609/153 202/610/153 206/611/153 205/612/153
vn 0.0000 0.0000 -1.0000
vt 1.9000 0.9450
vt 1.9000 1.0200
vt 2.7000 1.0200
vt 2.7000 0.9450
f 204/613/154 208/614/154 207/615/154 203/616/154
vn -1.0000 0.0000 0.0000
vt -0.0180 0.9450
vt -0.0180 1.0200
vt 0.0000 1.0200
vt 0.0000 0.9450
f 201/617/155 205/618/155 208/619/155 204/620/155
vn 1.0000 0.0000 0.0000
vt -0.0180 0.9450
vt 0.0000 0.9450
vt 0.0000 1.0200
vt -0.0180 1.0200
f 202/621/156 203/622/156 207/623/156 206/624/156

g Balcao_120_divisoria_gavetas
usemtl madeira
v 108.50000 16.50000 49.00000
v 110.00000 16.50000 49.00000
v 110.00000 16.50000 -0.00000
v 108.50000 16.50000 -0.00000
v 108.50000 89.00000 49.00000
v 110.00000 89.00000 49.00000
v 110.00000 89.00000 -0.00000
v 108.50000 89.00000 -0.00000
vn 0.0000 -1.0000 0.0000
vt 1.0850 -0.4900
vt 1.0850 0.0000
vt 1.1000 0.0000
vt 1.1000 -0.4900
f 209/625/157 212/626/157 211/627/157 210/628/157
vn 0.0000 1.0000 0.0000
vt 1.0850 -0.4900
vt 1.1000 -0.4900
vt 1.1000 0.0000
vt 1.0850 0.0000
f 213/629/158 214/630/158 215/631/158 216/632/158
vn 0.0000 0.0000 1.0000
vt 1.0850 0.1650
vt 1.1000 0.1650
vt 1.1000 0.8900
vt 1.0850 0.8900
f 209/633/159 210/634/159 214/635/159 213/636/159
vn 0.0000 0.0000 -1.0000
vt 1.0850 0.1650
vt 1.0850 0.8900
vt 1.1000 0.8900
vt 1.1000 0.1650
f 212/637/160 216/638/160 215/639/160 211/640/160
vn -1.0000 0.0000 0.0000
vt -0.4900 0.1650
vt -0.4900 0.8900
vt 0.0000 0.8900
vt 0.0000 0.1650
f 209/641/161 213/642/161 216/643/161 212/644/161
vn 1.0000 0.0000 0.0000
vt -0.4900 0.1650
vt 0.0000 0.1650
vt 0.0000 0.8900
vt -0.4900 0.8900
f 210/645/162 211/646/162 215/647/162 214/648/162

g Balcao_120_prateleira
usemtl madeira
v 110.00000 51.00000 47.00000
v 188.50000 51.00000 47.00000
v 188.50000 51.00000 0.60000
v 110.00000 51.00000 0.60000
v 110.00000 52.50000 47.00000
v 188.50000 52.50000 47.00000
v 188.50000 52.50000 0.60000
v 110.00000 52.50000 0.60000
vn 0.0000 -1.0000 0.0000
vt 1.1000 -0.4700
vt 1.1000 -0.0060
vt 1.8850 -0.0060
vt 1.8850 -0.4700
f 217/649/163 220/650/163 219/651/163 218/652/163
vn 0.0000 1.0000 0.0000
vt 1.1000 -0.4700
vt 1.8850 -0.4700
vt 1.8850 -0.0060
vt 1.1000 -0.0060
f 221/653/164 222/654/164 223/655/164 224/656/164
vn 0.0000 0.0000 1.0000
vt 1.1000 0.5100
vt 1.8850 0.5100
vt 1.8850 0.5250
vt 1.1000 0.5250
f 217/657/165 218/658/165 222/659/165 221/660/165
vn 0.0000 0.0000 -1.0000
vt 1.1000 0.5100
vt 1.1000 0.5250
vt 1.8850 0.5250
vt 1.8850 0.5100
f 220/661/166 224/662/166 223/663/166 219/664/166
vn -1.0000 0.0000 0.0000
vt -0.4700 0.5100
vt -0.4700 0.5250
vt -0.0060 0.5250
vt -0.0060 0.5100
f 217/665/167 221/666/167 224/667/167 220/668/167
vn 1.0000 0.0000 0.0000
vt -0.4700 0.5100
vt -0.0060 0.5100
vt -0.0060 0.5250
vt -0.4700 0.5250
f 218/669/168 219/670/168 223/671/168 222/672/168

g Balcao_80_prateleira
usemtl madeira
v 191.50000 51.00000 47.00000
v 268.50000 51.00000 47.00000
v 268.50000 51.00000 0.60000
v 191.50000 51.00000 0.60000
v 191.50000 52.50000 47.00000
v 268.50000 52.50000 47.00000
v 268.50000 52.50000 0.60000
v 191.50000 52.50000 0.60000
vn 0.0000 -1.0000 0.0000
vt 1.9150 -0.4700
vt 1.9150 -0.0060
vt 2.6850 -0.0060
vt 2.6850 -0.4700
f 225/673/169 228/674/169 227/675/169 226/676/169
vn 0.0000 1.0000 0.0000
vt 1.9150 -0.4700
vt 2.6850 -0.4700
vt 2.6850 -0.0060
vt 1.9150 -0.0060
f 229/677/170 230/678/170 231/679/170 232/680/170
vn 0.0000 0.0000 1.0000
vt 1.9150 0.5100
vt 2.6850 0.5100
vt 2.6850 0.5250
vt 1.9150 0.5250
f 225/681/171 226/682/171 230/683/171 229/684/171
vn 0.0000 0.0000 -1.0000
vt 1.9150 0.5100
vt 1.9150 0.5250
vt 2.6850 0.5250
vt 2.6850 0.5100
f 228/685/172 232/686/172 231/687/172 227/688/172
vn -1.0000 0.0000 0.0000
vt -0.4700 0.5100
vt -0.4700 0.5250
vt -0.0060 0.5250
vt -0.0060 0.5100
f 225/689/173 229/690/173 232/691/173 228/692/173
vn 1.0000 0.0000 0.0000
vt -0.4700 0.5100
vt -0.0060 0.5100
vt -0.0060 0.5250
vt -0.4700 0.5250
f 226/693/174 227/694/174 231/695/174 230/696/174

g Gavetao_torre_base
usemtl madeira
v 3.50000 19.00000 46.50000
v 66.50000 19.00000 46.50000
v 66.50000 19.00000 3.50000
v 3.50000 19.00000 3.50000
v 3.50000 20.20000 46.50000
v 66.50000 20.20000 46.50000
v 66.50000 20.20000 3.50000
v 3.50000 20.20000 3.50000
vn 0.0000 -1.0000 0.0000
vt 0.0350 -0.4650
vt 0.0350 -0.0350
vt 0.6650 -0.0350
vt 0.6650 -0.4650
f 233/697/175 236/698/175 235/699/175 234/700/175
vn 0.0000 1.0000 0.0000
vt 0.0350 -0.4650
vt 0.6650 -0.4650
vt 0.6650 -0.0350
vt 0.0350 -0.0350
f 237/701/176 238/702/176 239/703/176 240/704/176
vn 0.0000 0.0000 1.0000
vt 0.0350 0.1900
vt 0.6650 0.1900
vt 0.6650 0.2020
vt 0.0350 0.2020
f 233/705/177 234/706/177 238/707/177 237/708/177
vn 0.0000 0.0000 -1.0000
vt 0.0350 0.1900
vt 0.0350 0.2020
vt 0.6650 0.2020
vt 0.6650 0.1900
f 236/709/178 240/710/178 239/711/178 235/712/178
vn -1.0000 0.0000 0.0000
vt -0.4650 0.1900
vt -0.4650 0.2020
vt -0.0350 0.2020
vt -0.0350 0.1900
f 233/713/179 237/714/179 240/715/179 236/716/179
vn 1.0000 0.0000 0.0000
vt -0.4650 0.1900
vt -0.0350 0.1900
vt -0.0350 0.2020
vt -0.4650 0.2020
f 234/717/180 235/718/180 239/719/180 238/720/180

g Gavetao_torre_lateral_E
usemtl madeira
v 3.50000 19.00000 46.50000
v 4.70000 19.00000 46.50000
v 4.70000 19.00000 3.50000
v 3.50000 19.00000 3.50000
v 3.50000 44.00000 46.50000
v 4.70000 44.00000 46.50000
v 4.70000 44.00000 3.50000
v 3.50000 44.00000 3.50000
vn 0.0000 -1.0000 0.0000
vt 0.0350 -0.4650
vt 0.0350 -0.0350
vt 0.0470 -0.0350
vt 0.0470 -0.4650
f 241/721/181 244/722/181 243/723/181 242/724/181
vn 0.0000 1.0000 0.0000
vt 0.0350 -0.4650
vt 0.0470 -0.4650
vt 0.0470 -0.0350
vt 0.0350 -0.0350
f 245/725/182 246/726/182 247/727/182 248/728/182
vn 0.0000 0.0000 1.0000
vt 0.0350 0.1900
vt 0.0470 0.1900
vt 0.0470 0.4400
vt 0.0350 0.4400
f 241/729/183 242/730/183 246/731/183 245/732/183
vn 0.0000 0.0000 -1.0000
vt 0.0350 0.1900
vt 0.0350 0.4400
vt 0.0470 0.4400
vt 0.0470 0.1900
f 244/733/184 248/734/184 247/735/184 243/736/184
vn -1.0000 0.0000 0.0000
vt -0.4650 0.1900
vt -0.4650 0.4400
vt -0.0350 0.4400
vt -0.0350 0.1900
f 241/737/185 245/738/185 248/739/185 244/740/185
vn 1.0000 0.0000 0.0000
vt -0.4650 0.1900
vt -0.0350 0.1900
vt -0.0350 0.4400
vt -0.4650 0.4400
f 242/741/186 243/742/186 247/743/186 246/744/186

g Gavetao_torre_lateral_D
usemtl madeira
v 65.30000 19.00000 46.50000
v 66.50000 19.00000 46.50000
v 66.50000 19.00000 3.50000
v 65.30000 19.00000 3.50000
v 65.30000 44.00000 46.50000
v 66.50000 44.00000 46.50000
v 66.50000 44.00000 3.50000
v 65.30000 44.00000 3.50000
vn 0.0000 -1.0000 0.0000
vt 0.6530 -0.4650
vt 0.6530 -0.0350
vt 0.6650 -0.0350
vt 0.6650 -0.4650
f 249/745/187 252/746/187 251/747/187 250/748/187
vn 0.0000 1.0000 0.0000
vt 0.6530 -0.4650
vt 0.6650 -0.4650
vt 0.6650 -0.0350
vt 0.6530 -0.0350
f 253/749/188 254/750/188 255/751/188 256/752/188
vn 0.0000 0.0000 1.0000
vt 0.6530 0.1900
vt 0.6650 0.1900
vt 0.6650 0.4400
vt 0.6530 0.4400
f 249/753/189 250/754/189 254/755/189 253/756/189
vn 0.0000 0.0000 -1.0000
vt 0.6530 0.1900
vt 0.6530 0.4400
vt 0.6650 0.4400
vt 0.6650 0.1900
f 252/757/190 256/758/190 255/759/190 251/760/190
vn -1.0000 0.0000 0.0000
vt -0.4650 0.1900
vt -0.4650 0.4400
vt -0.0350 0.4400
vt -0.0350 0.1900
f 249/761/191 253/762/191 256/763/191 252/764/191
vn 1.0000 0.0000 0.0000
vt -0.4650 0.1900
vt -0.0350 0.1900
vt -0.0350 0.4400
vt -0.4650 0.4400
f 250/765/192 251/766/192 255/767/192 254/768/192

g Gavetao_torre_fundo
usemtl madeira
v 3.50000 19.00000 4.70000
v 66.50000 19.00000 4.70000
v 66.50000 19.00000 3.50000
v 3.50000 19.00000 3.50000
v 3.50000 44.00000 4.70000
v 66.50000 44.00000 4.70000
v 66.50000 44.00000 3.50000
v 3.50000 44.00000 3.50000
vn 0.0000 -1.0000 0.0000
vt 0.0350 -0.0470
vt 0.0350 -0.0350
vt 0.6650 -0.0350
vt 0.6650 -0.0470
f 257/769/193 260/770/193 259/771/193 258/772/193
vn 0.0000 1.0000 0.0000
vt 0.0350 -0.0470
vt 0.6650 -0.0470
vt 0.6650 -0.0350
vt 0.0350 -0.0350
f 261/773/194 262/774/194 263/775/194 264/776/194
vn 0.0000 0.0000 1.0000
vt 0.0350 0.1900
vt 0.6650 0.1900
vt 0.6650 0.4400
vt 0.0350 0.4400
f 257/777/195 258/778/195 262/779/195 261/780/195
vn 0.0000 0.0000 -1.0000
vt 0.0350 0.1900
vt 0.0350 0.4400
vt 0.6650 0.4400
vt 0.6650 0.1900
f 260/781/196 264/782/196 263/783/196 259/784/196
vn -1.0000 0.0000 0.0000
vt -0.0470 0.1900
vt -0.0470 0.4400
vt -0.0350 0.4400
vt -0.0350 0.1900
f 257/785/197 261/786/197 264/787/197 260/788/197
vn 1.0000 0.0000 0.0000
vt -0.0470 0.1900
vt -0.0350 0.1900
vt -0.0350 0.4400
vt -0.0470 0.4400
f 258/789/198 259/790/198 263/791/198 262/792/198

g Gavetao_torre_frente_interna
usemtl madeira
v 3.50000 19.00000 46.50000
v 66.50000 19.00000 46.50000
v 66.50000 19.00000 45.30000
v 3.50000 19.00000 45.30000
v 3.50000 44.00000 46.50000
v 66.50000 44.00000 46.50000
v 66.50000 44.00000 45.30000
v 3.50000 44.00000 45.30000
vn 0.0000 -1.0000 0.0000
vt 0.0350 -0.4650
vt 0.0350 -0.4530
vt 0.6650 -0.4530
vt 0.6650 -0.4650
f 265/793/199 268/794/199 267/795/199 266/796/199
vn 0.0000 1.0000 0.0000
vt 0.0350 -0.4650
vt 0.6650 -0.4650
vt 0.6650 -0.4530
vt 0.0350 -0.4530
f 269/797/200 270/798/200 271/799/200 272/800/200
vn 0.0000 0.0000 1.0000
vt 0.0350 0.1900
vt 0.6650 0.1900
vt 0.6650 0.4400
vt 0.0350 0.4400
f 265/801/201 266/802/201 270/803/201 269/804/201
vn 0.0000 0.0000 -1.0000
vt 0.0350 0.1900
vt 0.0350 0.4400
vt 0.6650 0.4400
vt 0.6650 0.1900
f 268/805/202 272/806/202 271/807/202 267/808/202
vn -1.0000 0.0000 0.0000
vt -0.4650 0.1900
vt -0.4650 0.4400
vt -0.4530 0.4400
vt -0.4530 0.1900
f 265/809/203 269/810/203 272/811/203 268/812/203
vn 1.0000 0.0000 0.0000
vt -0.4650 0.1900
vt -0.4530 0.1900
vt -0.4530 0.4400
vt -0.4650 0.4400
f 266/813/204 267/814/204 271/815/204 270/816/204

g Gaveta_1_base
usemtl madeira
v 73.00000 72.70000 46.50000
v 105.50000 72.70000 46.50000
v 105.50000 72.70000 3.50000
v 73.00000 72.70000 3.50000
v 73.00000 73.90000 46.50000
v 105.50000 73.90000 46.50000
v 105.50000 73.90000 3.50000
v 73.00000 73.90000 3.50000
vn 0.0000 -1.0000 0.0000
vt 0.7300 -0.4650
vt 0.7300 -0.0350
vt 1.0550 -0.0350
vt 1.0550 -0.4650
f 273/817/205 276/818/205 275/819/205 274/820/205
vn 0.0000 1.0000 0.0000
vt 0.7300 -0.4650
vt 1.0550 -0.4650
vt 1.0550 -0.0350
vt 0.7300 -0.0350
f 277/821/206 278/822/206 279/823/206 280/824/206
vn 0.0000 0.0000 1.0000
vt 0.7300 0.7270
vt 1.0550 0.7270
vt 1.0550 0.7390
vt 0.7300 0.7390
f 273/825/207 274/826/207 278/827/207 277/828/207
vn 0.0000 0.0000 -1.0000
vt 0.7300 0.7270
vt 0.7300 0.7390
vt 1.0550 0.7390
vt 1.0550 0.7270
f 276/829/208 280/830/208 279/831/208 275/832/208
vn -1.0000 0.0000 0.0000
vt -0.4650 0.7270
vt -0.4650 0.7390
vt -0.0350 0.7390
vt -0.0350 0.7270
f 273/833/209 277/834/209 280/835/209 276/836/209
vn 1.0000 0.0000 0.0000
vt -0.4650 0.7270
vt -0.0350 0.7270
vt -0.0350 0.7390
vt -0.4650 0.7390
f 274/837/210 275/838/210 279/839/210 278/840/210

g Gaveta_1_lateral_E
usemtl madeira
v 73.00000 72.70000 46.50000
v 74.20000 72.70000 46.50000
v 74.20000 72.70000 3.50000
v 73.00000 72.70000 3.50000
v 73.00000 85.70000 46.50000
v 74.20000 85.70000 46.50000
v 74.20000 85.70000 3.50000
v 73.00000 85.70000 3.50000
vn 0.0000 -1.0000 0.0000
vt 0.7300 -0.4650
vt 0.7300 -0.0350
vt 0.7420 -0.0350
vt 0.7420 -0.4650
f 281/841/211 284/842/211 283/843/211 282/844/211
vn 0.0000 1.0000 0.0000
vt 0.7300 -0.4650
vt 0.7420 -0.4650
vt 0.7420 -0.0350
vt 0.7300 -0.0350
f 285/845/212 286/846/212 287/847/212 288/848/212
vn 0.0000 0.0000 1.0000
vt 0.7300 0.7270
vt 0.7420 0.7270
vt 0.7420 0.8570
vt 0.7300 0.8570
f 281/849/213 282/850/213 286/851/213 285/852/213
vn 0.0000 0.0000 -1.0000
vt 0.7300 0.7270
vt 0.7300 0.8570
vt 0.7420 0.8570
vt 0.7420 0.7270
f 284/853/214 288/854/214 287/855/214 283/856/214
vn -1.0000 0.0000 0.0000
vt -0.4650 0.7270
vt -0.4650 0.8570
vt -0.0350 0.8570
vt -0.0350 0.7270
f 281/857/215 285/858/215 288/859/215 284/860/215
vn 1.0000 0.0000 0.0000
vt -0.4650 0.7270
vt -0.0350 0.7270
vt -0.0350 0.8570
vt -0.4650 0.8570
f 282/861/216 283/862/216 287/863/216 286/864/216

g Gaveta_1_lateral_D
usemtl madeira
v 104.30000 72.70000 46.50000
v 105.50000 72.70000 46.50000
v 105.50000 72.70000 3.50000
v 104.30000 72.70000 3.50000
v 104.30000 85.70000 46.50000
v 105.50000 85.70000 46.50000
v 105.50000 85.70000 3.50000
v 104.30000 85.70000 3.50000
vn 0.0000 -1.0000 0.0000
vt 1.0430 -0.4650
vt 1.0430 -0.0350
vt 1.0550 -0.0350
vt 1.0550 -0.4650
f 289/865/217 292/866/217 291/867/217 290/868/217
vn 0.0000 1.0000 0.0000
vt 1.0430 -0.4650
vt 1.0550 -0.4650
vt 1.0550 -0.0350
vt 1.0430 -0.0350
f 293/869/218 294/870/218 295/871/218 296/872/218
vn 0.0000 0.0000 1.0000
vt 1.0430 0.7270
vt 1.0550 0.7270
vt 1.0550 0.8570
vt 1.0430 0.8570
f 289/873/219 290/874/219 294/875/219 293/876/219
vn 0.0000 0.0000 -1.0000
vt 1.0430 0.7270
vt 1.0430 0.8570
vt 1.0550 0.8570
vt 1.0550 0.7270
f 292/877/220 296/878/220 295/879/220 291/880/220
vn -1.0000 0.0000 0.0000
vt -0.4650 0.7270
vt -0.4650 0.8570
vt -0.0350 0.8570
vt -0.0350 0.7270
f 289/881/221 293/882/221 296/883/221 292/884/221
vn 1.0000 0.0000 0.0000
vt -0.4650 0.7270
vt -0.0350 0.7270
vt -0.0350 0.8570
vt -0.4650 0.8570
f 290/885/222 291/886/222 295/887/222 294/888/222

g Gaveta_1_fundo
usemtl madeira
v 73.00000 72.70000 4.70000
v 105.50000 72.70000 4.70000
v 105.50000 72.70000 3.50000
v 73.00000 72.70000 3.50000
v 73.00000 85.70000 4.70000
v 105.50000 85.70000 4.70000
v 105.50000 85.70000 3.50000
v 73.00000 85.70000 3.50000
vn 0.0000 -1.0000 0.0000
vt 0.7300 -0.0470
vt 0.7300 -0.0350
vt 1.0550 -0.0350
vt 1.0550 -0.0470
f 297/889/223 300/890/223 299/891/223 298/892/223
vn 0.0000 1.0000 0.0000
vt 0.7300 -0.0470
vt 1.0550 -0.0470
vt 1.0550 -0.0350
vt 0.7300 -0.0350
f 301/893/224 302/894/224 303/895/224 304/896/224
vn 0.0000 0.0000 1.0000
vt 0.7300 0.7270
vt 1.0550 0.7270
vt 1.0550 0.8570
vt 0.7300 0.8570
f 297/897/225 298/898/225 302/899/225 301/900/225
vn 0.0000 0.0000 -1.0000
vt 0.7300 0.7270
vt 0.7300 0.8570
vt 1.0550 0.8570
vt 1.0550 0.7270
f 300/901/226 304/902/226 303/903/226 299/904/226
vn -1.0000 0.0000 0.0000
vt -0.0470 0.7270
vt -0.0470 0.8570
vt -0.0350 0.8570
vt -0.0350 0.7270
f 297/905/227 301/906/227 304/907/227 300/908/227
vn 1.0000 0.0000 0.0000
vt -0.0470 0.7270
vt -0.0350 0.7270
vt -0.0350 0.8570
vt -0.0470 0.8570
f 298/909/228 299/910/228 303/911/228 302/912/228

g Gaveta_1_frente_interna
usemtl madeira
v 73.00000 72.70000 46.50000
v 105.50000 72.70000 46.50000
v 105.50000 72.70000 45.30000
v 73.00000 72.70000 45.30000
v 73.00000 85.70000 46.50000
v 105.50000 85.70000 46.50000
v 105.50000 85.70000 45.30000
v 73.00000 85.70000 45.30000
vn 0.0000 -1.0000 0.0000
vt 0.7300 -0.4650
vt 0.7300 -0.4530
vt 1.0550 -0.4530
vt 1.0550 -0.4650
f 305/913/229 308/914/229 307/915/229 306/916/229
vn 0.0000 1.0000 0.0000
vt 0.7300 -0.4650
vt 1.0550 -0.4650
vt 1.0550 -0.4530
vt 0.7300 -0.4530
f 309/917/230 310/918/230 311/919/230 312/920/230
vn 0.0000 0.0000 1.0000
vt 0.7300 0.7270
vt 1.0550 0.7270
vt 1.0550 0.8570
vt 0.7300 0.8570
f 305/921/231 306/922/231 310/923/231 309/924/231
vn 0.0000 0.0000 -1.0000
vt 0.7300 0.7270
vt 0.7300 0.8570
vt 1.0550 0.8570
vt 1.0550 0.7270
f 308/925/232 312/926/232 311/927/232 307/928/232
vn -1.0000 0.0000 0.0000
vt -0.4650 0.7270
vt -0.4650 0.8570
vt -0.4530 0.8570
vt -0.4530 0.7270
f 305/929/233 309/930/233 312/931/233 308/932/233
vn 1.0000 0.0000 0.0000
vt -0.4650 0.7270
vt -0.4530 0.7270
vt -0.4530 0.8570
vt -0.4650 0.8570
f 306/933/234 307/934/234 311/935/234 310/936/234

g Gaveta_2_base
usemtl madeira
v 73.00000 53.70000 46.50000
v 105.50000 53.70000 46.50000
v 105.50000 53.70000 3.50000
v 73.00000 53.70000 3.50000
v 73.00000 54.90000 46.50000
v 105.50000 54.90000 46.50000
v 105.50000 54.90000 3.50000
v 73.00000 54.90000 3.50000
vn 0.0000 -1.0000 0.0000
vt 0.7300 -0.4650
vt 0.7300 -0.0350
vt 1.0550 -0.0350
vt 1.0550 -0.4650
f 313/937/235 316/938/235 315/939/235 314/940/235
vn 0.0000 1.0000 0.0000
vt 0.7300 -0.4650
vt 1.0550 -0.4650
vt 1.0550 -0.0350
vt 0.7300 -0.0350
f 317/941/236 318/942/236 319/943/236 320/944/236
vn 0.0000 0.0000 1.0000
vt 0.7300 0.5370
vt 1.0550 0.5370
vt 1.0550 0.5490
vt 0.7300 0.5490
f 313/945/237 314/946/237 318/947/237 317/948/237
vn 0.0000 0.0000 -1.0000
vt 0.7300 0.5370
vt 0.7300 0.5490
vt 1.0550 0.5490
vt 1.0550 0.5370
f 316/949/238 320/950/238 319/951/238 315/952/238
vn -1.0000 0.0000 0.0000
vt -0.4650 0.5370
vt -0.4650 0.5490
vt -0.0350 0.5490
vt -0.0350 0.5370
f 313/953/239 317/954/239 320/955/239 316/956/239
vn 1.0000 0.0000 0.0000
vt -0.4650 0.5370
vt -0.0350 0.5370
vt -0.0350 0.5490
vt -0.4650 0.5490
f 314/957/240 315/958/240 319/959/240 318/960/240

g Gaveta_2_lateral_E
usemtl madeira
v 73.00000 53.70000 46.50000
v 74.20000 53.70000 46.50000
v 74.20000 53.70000 3.50000
v 73.00000 53.70000 3.50000
v 73.00000 66.70000 46.50000
v 74.20000 66.70000 46.50000
v 74.20000 66.70000 3.50000
v 73.00000 66.70000 3.50000
vn 0.0000 -1.0000 0.0000
vt 0.7300 -0.4650
vt 0.7300 -0.0350
vt 0.7420 -0.0350
vt 0.7420 -0.4650
f 321/961/241 324/962/241 323/963/241 322/964/241
vn 0.0000 1.0000 0.0000
vt 0.7300 -0.4650
vt 0.7420 -0.4650
vt 0.7420 -0.0350
vt 0.7300 -0.0350
f 325/965/242 326/966/242 327/967/242 328/968/242
vn 0.0000 0.0000 1.0000
vt 0.7300 0.5370
vt 0.7420 0.5370
vt 0.7420 0.6670
vt 0.7300 0.6670
f 321/969/243 322/970/243 326/971/243 325/972/243
vn 0.0000 0.0000 -1.0000
vt 0.7300 0.5370
vt 0.7300 0.6670
vt 0.7420 0.6670
vt 0.7420 0.5370
f 324/973/244 328/974/244 327/975/244 323/976/244
vn -1.0000 0.0000 0.0000
vt -0.4650 0.5370
vt -0.4650 0.6670
vt -0.0350 0.6670
vt -0.0350 0.5370
f 321/977/245 325/978/245 328/979/245 324/980/245
vn 1.0000 0.0000 0.0000
vt -0.4650 0.5370
vt -0.0350 0.5370
vt -0.0350 0.6670
vt -0.4650 0.6670
f 322/981/246 323/982/246 327/983/246 326/984/246

g Gaveta_2_lateral_D
usemtl madeira
v 104.30000 53.70000 46.50000
v 105.50000 53.70000 46.50000
v 105.50000 53.70000 3.50000
v 104.30000 53.70000 3.50000
v 104.30000 66.70000 46.50000
v 105.50000 66.70000 46.50000
v 105.50000 66.70000 3.50000
v 104.30000 66.70000 3.50000
vn 0.0000 -1.0000 0.0000
vt 1.0430 -0.4650
vt 1.0430 -0.0350
vt 1.0550 -0.0350
vt 1.0550 -0.4650
f 329/985/247 332/986/247 331/987/247 330/988/247
vn 0.0000 1.0000 0.0000
vt 1.0430 -0.4650
vt 1.0550 -0.4650
vt 1.0550 -0.0350
vt 1.0430 -0.0350
f 333/989/248 334/990/248 335/991/248 336/992/248
vn 0.0000 0.0000 1.0000
vt 1.0430 0.5370
vt 1.0550 0.5370
vt 1.0550 0.6670
vt 1.0430 0.6670
f 329/993/249 330/994/249 334/995/249 333/996/249
vn 0.0000 0.0000 -1.0000
vt 1.0430 0.5370
vt 1.0430 0.6670
vt 1.0550 0.6670
vt 1.0550 0.5370
f 332/997/250 336/998/250 335/999/250 331/1000/250
vn -1.0000 0.0000 0.0000
vt -0.4650 0.5370
vt -0.4650 0.6670
vt -0.0350 0.6670
vt -0.0350 0.5370
f 329/1001/251 333/1002/251 336/1003/251 332/1004/251
vn 1.0000 0.0000 0.0000
vt -0.4650 0.5370
vt -0.0350 0.5370
vt -0.0350 0.6670
vt -0.4650 0.6670
f 330/1005/252 331/1006/252 335/1007/252 334/1008/252

g Gaveta_2_fundo
usemtl madeira
v 73.00000 53.70000 4.70000
v 105.50000 53.70000 4.70000
v 105.50000 53.70000 3.50000
v 73.00000 53.70000 3.50000
v 73.00000 66.70000 4.70000
v 105.50000 66.70000 4.70000
v 105.50000 66.70000 3.50000
v 73.00000 66.70000 3.50000
vn 0.0000 -1.0000 0.0000
vt 0.7300 -0.0470
vt 0.7300 -0.0350
vt 1.0550 -0.0350
vt 1.0550 -0.0470
f 337/1009/253 340/1010/253 339/1011/253 338/1012/253
vn 0.0000 1.0000 0.0000
vt 0.7300 -0.0470
vt 1.0550 -0.0470
vt 1.0550 -0.0350
vt 0.7300 -0.0350
f 341/1013/254 342/1014/254 343/1015/254 344/1016/254
vn 0.0000 0.0000 1.0000
vt 0.7300 0.5370
vt 1.0550 0.5370
vt 1.0550 0.6670
vt 0.7300 0.6670
f 337/1017/255 338/1018/255 342/1019/255 341/1020/255
vn 0.0000 0.0000 -1.0000
vt 0.7300 0.5370
vt 0.7300 0.6670
vt 1.0550 0.6670
vt 1.0550 0.5370
f 340/1021/256 344/1022/256 343/1023/256 339/1024/256
vn -1.0000 0.0000 0.0000
vt -0.0470 0.5370
vt -0.0470 0.6670
vt -0.0350 0.6670
vt -0.0350 0.5370
f 337/1025/257 341/1026/257 344/1027/257 340/1028/257
vn 1.0000 0.0000 0.0000
vt -0.0470 0.5370
vt -0.0350 0.5370
vt -0.0350 0.6670
vt -0.0470 0.6670
f 338/1029/258 339/1030/258 343/1031/258 342/1032/258

g Gaveta_2_frente_interna
usemtl madeira
v 73.00000 53.70000 46.50000
v 105.50000 53.70000 46.50000
v 105.50000 53.70000 45.30000
v 73.00000 53.70000 45.30000
v 73.00000 66.70000 46.50000
v 105.50000 66.70000 46.50000
v 105.50000 66.70000 45.30000
v 73.00000 66.70000 45.30000
vn 0.0000 -1.0000 0.0000
vt 0.7300 -0.4650
vt 0.7300 -0.4530
vt 1.0550 -0.4530
vt 1.0550 -0.4650
f 345/1033/259 348/1034/259 347/1035/259 346/1036/259
vn 0.0000 1.0000 0.0000
vt 0.7300 -0.4650
vt 1.0550 -0.4650
vt 1.0550 -0.4530
vt 0.7300 -0.4530
f 349/1037/260 350/1038/260 351/1039/260 352/1040/260
vn 0.0000 0.0000 1.0000
vt 0.7300 0.5370
vt 1.0550 0.5370
vt 1.0550 0.6670
vt 0.7300 0.6670
f 345/1041/261 346/1042/261 350/1043/261 349/1044/261
vn 0.0000 0.0000 -1.0000
vt 0.7300 0.5370
vt 0.7300 0.6670
vt 1.0550 0.6670
vt 1.0550 0.5370
f 348/1045/262 352/1046/262 351/1047/262 347/1048/262
vn -1.0000 0.0000 0.0000
vt -0.4650 0.5370
vt -0.4650 0.6670
vt -0.4530 0.6670
vt -0.4530 0.5370
f 345/1049/263 349/1050/263 352/1051/263 348/1052/263
vn 1.0000 0.0000 0.0000
vt -0.4650 0.5370
vt -0.4530 0.5370
vt -0.4530 0.6670
vt -0.4650 0.6670
f 346/1053/264 347/1054/264 351/1055/264 350/1056/264

g Torre_alta_lateral_0
usemtl madeira
v 0.00000 94.50000 49.00000
v 1.50000 94.50000 49.00000
v 1.50000 94.50000 -0.00000
v 0.00000 94.50000 -0.00000
v 0.00000 220.00000 49.00000
v 1.50000 220.00000 49.00000
v 1.50000 220.00000 -0.00000
v 0.00000 220.00000 -0.00000
vn 0.0000 -1.0000 0.0000
vt 0.0000 -0.4900
vt 0.0000 0.0000
vt 0.0150 0.0000
vt 0.0150 -0.4900
f 353/1057/265 356/1058/265 355/1059/265 354/1060/265
vn 0.0000 1.0000 0.0000
vt 0.0000 -0.4900
vt 0.0150 -0.4900
vt 0.0150 0.0000
vt 0.0000 0.0000
f 357/1061/266 358/1062/266 359/1063/266 360/1064/266
vn 0.0000 0.0000 1.0000
vt 0.0000 0.9450
vt 0.0150 0.9450
vt 0.0150 2.2000
vt 0.0000 2.2000
f 353/1065/267 354/1066/267 358/1067/267 357/1068/267
vn 0.0000 0.0000 -1.0000
vt 0.0000 0.9450
vt 0.0000 2.2000
vt 0.0150 2.2000
vt 0.0150 0.9450
f 356/1069/268 360/1070/268 359/1071/268 355/1072/268
vn -1.0000 0.0000 0.0000
vt -0.4900 0.9450
vt -0.4900 2.2000
vt 0.0000 2.2000
vt 0.0000 0.9450
f 353/1073/269 357/1074/269 360/1075/269 356/1076/269
vn 1.0000 0.0000 0.0000
vt -0.4900 0.9450
vt 0.0000 0.9450
vt 0.0000 2.2000
vt -0.4900 2.2000
f 354/1077/270 355/1078/270 359/1079/270 358/1080/270

g Torre_alta_lateral_0.685
usemtl madeira
v 68.50000 94.50000 49.00000
v 70.00000 94.50000 49.00000
v 70.00000 94.50000 -0.00000
v 68.50000 94.50000 -0.00000
v 68.50000 220.00000 49.00000
v 70.00000 220.00000 49.00000
v 70.00000 220.00000 -0.00000
v 68.50000 220.00000 -0.00000
vn 0.0000 -1.0000 0.0000
vt 0.6850 -0.4900
vt 0.6850 0.0000
vt 0.7000 0.0000
vt 0.7000 -0.4900
f 361/1081/271 364/1082/271 363/1083/271 362/1084/271
vn 0.0000 1.0000 0.0000
vt 0.6850 -0.4900
vt 0.7000 -0.4900
vt 0.7000 0.0000
vt 0.6850 0.0000
f 365/1085/272 366/1086/272 367/1087/272 368/1088/272
vn 0.0000 0.0000 1.0000
vt 0.6850 0.9450
vt 0.7000 0.9450
vt 0.7000 2.2000
vt 0.6850 2.2000
f 361/1089/273 362/1090/273 366/1091/273 365/1092/273
vn 0.0000 0.0000 -1.0000
vt 0.6850 0.9450
vt 0.6850 2.2000
vt 0.7000 2.2000
vt 0.7000 0.9450
f 364/1093/274 368/1094/274 367/1095/274 363/1096/274
vn -1.0000 0.0000 0.0000
vt -0.4900 0.9450
vt -0.4900 2.2000
vt 0.0000 2.2000
vt 0.0000 0.9450
f 361/1097/275 365/1098/275 368/1099/275 364/1100/275
vn 1.0000 0.0000 0.0000
vt -0.4900 0.9450
vt 0.0000 0.9450
vt 0.0000 2.2000
vt -0.4900 2.2000
f 362/1101/276 363/1102/276 367/1103/276 366/1104/276

g Torre_alta_fundo
usemtl fundo
v 1.50000 94.50000 0.60000
v 68.50000 94.50000 0.60000
v 68.50000 94.50000 -0.00000
v 1.50000 94.50000 -0.00000
v 1.50000 218.50000 0.60000
v 68.50000 218.50000 0.60000
v 68.50000 218.50000 -0.00000
v 1.50000 218.50000 -0.00000
vn 0.0000 -1.0000 0.0000
vt 0.0150 -0.0060
vt 0.0150 0.0000
vt 0.6850 0.0000
vt 0.6850 -0.0060
f 369/1105/277 372/1106/277 371/1107/277 370/1108/277
vn 0.0000 1.0000 0.0000
vt 0.0150 -0.0060
vt 0.6850 -0.0060
vt 0.6850 0.0000
vt 0.0150 0.0000
f 373/1109/278 374/1110/278 375/1111/278 376/1112/278
vn 0.0000 0.0000 1.0000
vt 0.0150 0.9450
vt 0.6850 0.9450
vt 0.6850 2.1850
vt 0.0150 2.1850
f 369/1113/279 370/1114/279 374/1115/279 373/1116/279
vn 0.0000 0.0000 -1.0000
vt 0.0150 0.9450
vt 0.0150 2.1850
vt 0.6850 2.1850
vt 0.6850 0.9450
f 372/1117/280 376/1118/280 375/1119/280 371/1120/280
vn -1.0000 0.0000 0.0000
vt -0.0060 0.9450
vt -0.0060 2.1850
vt 0.0000 2.1850
vt 0.0000 0.9450
f 369/1121/281 373/1122/281 376/1123/281 372/1124/281
vn 1.0000 0.0000 0.0000
vt -0.0060 0.9450
vt 0.0000 0.9450
vt 0.0000 2.1850
vt -0.0060 2.1850
f 370/1125/282 371/1126/282 375/1127/282 374/1128/282

g Torre_alta_topo
usemtl madeira
v 1.50000 218.50000 49.00000
v 68.50000 218.50000 49.00000
v 68.50000 218.50000 -0.00000
v 1.50000 218.50000 -0.00000
v 1.50000 220.00000 49.00000
v 68.50000 220.00000 49.00000
v 68.50000 220.00000 -0.00000
v 1.50000 220.00000 -0.00000
vn 0.0000 -1.0000 0.0000
vt 0.0150 -0.4900
vt 0.0150 0.0000
vt 0.6850 0.0000
vt 0.6850 -0.4900
f 377/1129/283 380/1130/283 379/1131/283 378/1132/283
vn 0.0000 1.0000 0.0000
vt 0.0150 -0.4900
vt 0.6850 -0.4900
vt 0.6850 0.0000
vt 0.0150 0.0000
f 381/1133/284 382/1134/284 383/1135/284 384/1136/284
vn 0.0000 0.0000 1.0000
vt 0.0150 2.1850
vt 0.6850 2.1850
vt 0.6850 2.2000
vt 0.0150 2.2000
f 377/1137/285 378/1138/285 382/1139/285 381/1140/285
vn 0.0000 0.0000 -1.0000
vt 0.0150 2.1850
vt 0.0150 2.2000
vt 0.6850 2.2000
vt 0.6850 2.1850
f 380/1141/286 384/1142/286 383/1143/286 379/1144/286
vn -1.0000 0.0000 0.0000
vt -0.4900 2.1850
vt -0.4900 2.2000
vt 0.0000 2.2000
vt 0.0000 2.1850
f 377/1145/287 381/1146/287 384/1147/287 380/1148/287
vn 1.0000 0.0000 0.0000
vt -0.4900 2.1850
vt 0.0000 2.1850
vt 0.0000 2.2000
vt -0.4900 2.2000
f 378/1149/288 379/1150/288 383/1151/288 382/1152/288

g Torre_alta_prateleira_1.36
usemtl madeira
v 1.50000 136.00000 49.00000
v 68.50000 136.00000 49.00000
v 68.50000 136.00000 -0.00000
v 1.50000 136.00000 -0.00000
v 1.50000 137.50000 49.00000
v 68.50000 137.50000 49.00000
v 68.50000 137.50000 -0.00000
v 1.50000 137.50000 -0.00000
vn 0.0000 -1.0000 0.0000
vt 0.0150 -0.4900
vt 0.0150 0.0000
vt 0.6850 0.0000
vt 0.6850 -0.4900
f 385/1153/289 388/1154/289 387/1155/289 386/1156/289
vn 0.0000 1.0000 0.0000
vt 0.0150 -0.4900
vt 0.6850 -0.4900
vt 0.6850 0.0000
vt 0.0150 0.0000
f 389/1157/290 390/1158/290 391/1159/290 392/1160/290
vn 0.0000 0.0000 1.0000
vt 0.0150 1.3600
vt 0.6850 1.3600
vt 0.6850 1.3750
vt 0.0150 1.3750
f 385/1161/291 386/1162/291 390/1163/291 389/1164/291
vn 0.0000 0.0000 -1.0000
vt 0.0150 1.3600
vt 0.0150 1.3750
vt 0.6850 1.3750
vt 0.6850 1.3600
f 388/1165/292 392/1166/292 391/1167/292 387/1168/292
vn -1.0000 0.0000 0.0000
vt -0.4900 1.3600
vt -0.4900 1.3750
vt 0.0000 1.3750
vt 0.0000 1.3600
f 385/1169/293 389/1170/293 392/1171/293 388/1172/293
vn 1.0000 0.0000 0.0000
vt -0.4900 1.3600
vt 0.0000 1.3600
vt 0.0000 1.3750
vt -0.4900 1.3750
f 386/1173/294 387/1174/294 391/1175/294 390/1176/294

g Torre_alta_prateleira_1.775
usemtl madeira
v 1.50000 177.50000 49.00000
v 68.50000 177.50000 49.00000
v 68.50000 177.50000 -0.00000
v 1.50000 177.50000 -0.00000
v 1.50000 179.00000 49.00000
v 68.50000 179.00000 49.00000
v 68.50000 179.00000 -0.00000
v 1.50000 179.00000 -0.00000
vn 0.0000 -1.0000 0.0000
vt 0.0150 -0.4900
vt 0.0150 0.0000
vt 0.6850 0.0000
vt 0.6850 -0.4900
f 393/1177/295 396/1178/295 395/1179/295 394/1180/295
vn 0.0000 1.0000 0.0000
vt 0.0150 -0.4900
vt 0.6850 -0.4900
vt 0.6850 0.0000
vt 0.0150 0.0000
f 397/1181/296 398/1182/296 399/1183/296 400/1184/296
vn 0.0000 0.0000 1.0000
vt 0.0150 1.7750
vt 0.6850 1.7750
vt 0.6850 1.7900
vt 0.0150 1.7900
f 393/1185/297 394/1186/297 398/1187/297 397/1188/297
vn 0.0000 0.0000 -1.0000
vt 0.0150 1.7750
vt 0.0150 1.7900
vt 0.6850 1.7900
vt 0.6850 1.7750
f 396/1189/298 400/1190/298 399/1191/298 395/1192/298
vn -1.0000 0.0000 0.0000
vt -0.4900 1.7750
vt -0.4900 1.7900
vt 0.0000 1.7900
vt 0.0000 1.7750
f 393/1193/299 397/1194/299 400/1195/299 396/1196/299
vn 1.0000 0.0000 0.0000
vt -0.4900 1.7750
vt 0.0000 1.7750
vt 0.0000 1.7900
vt -0.4900 1.7900
f 394/1197/300 395/1198/300 399/1199/300 398/1200/300

g Aereo_120_lateral_sup_0.7
usemtl madeira
v 70.00000 183.00000 46.00000
v 71.50000 183.00000 46.00000
v 71.50000 183.00000 -0.00000
v 70.00000 183.00000 -0.00000
v 70.00000 220.00000 46.00000
v 71.50000 220.00000 46.00000
v 71.50000 220.00000 -0.00000
v 70.00000 220.00000 -0.00000
vn 0.0000 -1.0000 0.0000
vt 0.7000 -0.4600
vt 0.7000 0.0000
vt 0.7150 0.0000
vt 0.7150 -0.4600
f 401/1201/301 404/1202/301 403/1203/301 402/1204/301
vn 0.0000 1.0000 0.0000
vt 0.7000 -0.4600
vt 0.7150 -0.4600
vt 0.7150 0.0000
vt 0.7000 0.0000
f 405/1205/302 406/1206/302 407/1207/302 408/1208/302
vn 0.0000 0.0000 1.0000
vt 0.7000 1.8300
vt 0.7150 1.8300
vt 0.7150 2.2000
vt 0.7000 2.2000
f 401/1209/303 402/1210/303 406/1211/303 405/1212/303
vn 0.0000 0.0000 -1.0000
vt 0.7000 1.8300
vt 0.7000 2.2000
vt 0.7150 2.2000
vt 0.7150 1.8300
f 404/1213/304 408/1214/304 407/1215/304 403/1216/304
vn -1.0000 0.0000 0.0000
vt -0.4600 1.8300
vt -0.4600 2.2000
vt 0.0000 2.2000
vt 0.0000 1.8300
f 401/1217/305 405/1218/305 408/1219/305 404/1220/305
vn 1.0000 0.0000 0.0000
vt -0.4600 1.8300
vt 0.0000 1.8300
vt 0.0000 2.2000
vt -0.4600 2.2000
f 402/1221/306 403/1222/306 407/1223/306 406/1224/306

g Aereo_120_lateral_inf_0.7
usemtl madeira
v 70.00000 146.00000 29.00000
v 71.50000 146.00000 29.00000
v 71.50000 146.00000 -0.00000
v 70.00000 146.00000 -0.00000
v 70.00000 183.00000 29.00000
v 71.50000 183.00000 29.00000
v 71.50000 183.00000 -0.00000
v 70.00000 183.00000 -0.00000
vn 0.0000 -1.0000 0.0000
vt 0.7000 -0.2900
vt 0.7000 0.0000
vt 0.7150 0.0000
vt 0.7150 -0.2900
f 409/1225/307 412/1226/307 411/1227/307 410/1228/307
vn 0.0000 1.0000 0.0000
vt 0.7000 -0.2900
vt 0.7150 -0.2900
vt 0.7150 0.0000
vt 0.7000 0.0000
f 413/1229/308 414/1230/308 415/1231/308 416/1232/308
vn 0.0000 0.0000 1.0000
vt 0.7000 1.4600
vt 0.7150 1.4600
vt 0.7150 1.8300
vt 0.7000 1.8300
f 409/1233/309 410/1234/309 414/1235/309 413/1236/309
vn 0.0000 0.0000 -1.0000
vt 0.7000 1.4600
vt 0.7000 1.8300
vt 0.7150 1.8300
vt 0.7150 1.4600
f 412/1237/310 416/1238/310 415/1239/310 411/1240/310
vn -1.0000 0.0000 0.0000
vt -0.2900 1.4600
vt -0.2900 1.8300
vt 0.0000 1.8300
vt 0.0000 1.4600
f 409/1241/311 413/1242/311 416/1243/311 412/1244/311
vn 1.0000 0.0000 0.0000
vt -0.2900 1.4600
vt 0.0000 1.4600
vt 0.0000 1.8300
vt -0.2900 1.8300
f 410/1245/312 411/1246/312 415/1247/312 414/1248/312

g Aereo_120_lateral_sup_1.885
usemtl madeira
v 188.50000 183.00000 46.00000
v 190.00000 183.00000 46.00000
v 190.00000 183.00000 -0.00000
v 188.50000 183.00000 -0.00000
v 188.50000 220.00000 46.00000
v 190.00000 220.00000 46.00000
v 190.00000 220.00000 -0.00000
v 188.50000 220.00000 -0.00000
vn 0.0000 -1.0000 0.0000
vt 1.8850 -0.4600
vt 1.8850 0.0000
vt 1.9000 0.0000
vt 1.9000 -0.4600
f 417/1249/313 420/1250/313 419/1251/313 418/1252/313
vn 0.0000 1.0000 0.0000
vt 1.8850 -0.4600
vt 1.9000 -0.4600
vt 1.9000 0.0000
vt 1.8850 0.0000
f 421/1253/314 422/1254/314 423/1255/314 424/1256/314
vn 0.0000 0.0000 1.0000
vt 1.8850 1.8300
vt 1.9000 1.8300
vt 1.9000 2.2000
vt 1.8850 2.2000
f 417/1257/315 418/1258/315 422/1259/315 421/1260/315
vn 0.0000 0.0000 -1.0000
vt 1.8850 1.8300
vt 1.8850 2.2000
vt 1.9000 2.2000
vt 1.9000 1.8300
f 420/1261/316 424/1262/316 423/1263/316 419/1264/316
vn -1.0000 0.0000 0.0000
vt -0.4600 1.8300
vt -0.4600 2.2000
vt 0.0000 2.2000
vt 0.0000 1.8300
f 417/1265/317 421/1266/317 424/1267/317 420/1268/317
vn 1.0000 0.0000 0.0000
vt -0.4600 1.8300
vt 0.0000 1.8300
vt 0.0000 2.2000
vt -0.4600 2.2000
f 418/1269/318 419/1270/318 423/1271/318 422/1272/318

g Aereo_120_lateral_inf_1.885
usemtl madeira
v 188.50000 146.00000 29.00000
v 190.00000 146.00000 29.00000
v 190.00000 146.00000 -0.00000
v 188.50000 146.00000 -0.00000
v 188.50000 183.00000 29.00000
v 190.00000 183.00000 29.00000
v 190.00000 183.00000 -0.00000
v 188.50000 183.00000 -0.00000
vn 0.0000 -1.0000 0.0000
vt 1.8850 -0.2900
vt 1.8850 0.0000
vt 1.9000 0.0000
vt 1.9000 -0.2900
f 425/1273/319 428/1274/319 427/1275/319 426/1276/319
vn 0.0000 1.0000 0.0000
vt 1.8850 -0.2900
vt 1.9000 -0.2900
vt 1.9000 0.0000
vt 1.8850 0.0000
f 429/1277/320 430/1278/320 431/1279/320 432/1280/320
vn 0.0000 0.0000 1.0000
vt 1.8850 1.4600
vt 1.9000 1.4600
vt 1.9000 1.8300
vt 1.8850 1.8300
f 425/1281/321 426/1282/321 430/1283/321 429/1284/321
vn 0.0000 0.0000 -1.0000
vt 1.8850 1.4600
vt 1.8850 1.8300
vt 1.9000 1.8300
vt 1.9000 1.4600
f 428/1285/322 432/1286/322 431/1287/322 427/1288/322
vn -1.0000 0.0000 0.0000
vt -0.2900 1.4600
vt -0.2900 1.8300
vt 0.0000 1.8300
vt 0.0000 1.4600
f 425/1289/323 429/1290/323 432/1291/323 428/1292/323
vn 1.0000 0.0000 0.0000
vt -0.2900 1.4600
vt 0.0000 1.4600
vt 0.0000 1.8300
vt -0.2900 1.8300
f 426/1293/324 427/1294/324 431/1295/324 430/1296/324

g Aereo_120_topo
usemtl madeira
v 71.50000 218.50000 46.00000
v 188.50000 218.50000 46.00000
v 188.50000 218.50000 -0.00000
v 71.50000 218.50000 -0.00000
v 71.50000 220.00000 46.00000
v 188.50000 220.00000 46.00000
v 188.50000 220.00000 -0.00000
v 71.50000 220.00000 -0.00000
vn 0.0000 -1.0000 0.0000
vt 0.7150 -0.4600
vt 0.7150 0.0000
vt 1.8850 0.0000
vt 1.8850 -0.4600
f 433/1297/325 436/1298/325 435/1299/325 434/1300/325
vn 0.0000 1.0000 0.0000
vt 0.7150 -0.4600
vt 1.8850 -0.4600
vt 1.8850 0.0000
vt 0.7150 0.0000
f 437/1301/326 438/1302/326 439/1303/326 440/1304/326
vn 0.0000 0.0000 1.0000
vt 0.7150 2.1850
vt 1.8850 2.1850
vt 1.8850 2.2000
vt 0.7150 2.2000
f 433/1305/327 434/1306/327 438/1307/327 437/1308/327
vn 0.0000 0.0000 -1.0000
vt 0.7150 2.1850
vt 0.7150 2.2000
vt 1.8850 2.2000
vt 1.8850 2.1850
f 436/1309/328 440/1310/328 439/1311/328 435/1312/328
vn -1.0000 0.0000 0.0000
vt -0.4600 2.1850
vt -0.4600 2.2000
vt 0.0000 2.2000
vt 0.0000 2.1850
f 433/1313/329 437/1314/329 440/1315/329 436/1316/329
vn 1.0000 0.0000 0.0000
vt -0.4600 2.1850
vt 0.0000 2.1850
vt 0.0000 2.2000
vt -0.4600 2.2000
f 434/1317/330 435/1318/330 439/1319/330 438/1320/330

g Aereo_120_base_sup
usemtl madeira
v 71.50000 183.00000 46.00000
v 188.50000 183.00000 46.00000
v 188.50000 183.00000 -0.00000
v 71.50000 183.00000 -0.00000
v 71.50000 184.50000 46.00000
v 188.50000 184.50000 46.00000
v 188.50000 184.50000 -0.00000
v 71.50000 184.50000 -0.00000
vn 0.0000 -1.0000 0.0000
vt 0.7150 -0.4600
vt 0.7150 0.0000
vt 1.8850 0.0000
vt 1.8850 -0.4600
f 441/1321/331 444/1322/331 443/1323/331 442/1324/331
vn 0.0000 1.0000 0.0000
vt 0.7150 -0.4600
vt 1.8850 -0.4600
vt 1.8850 0.0000
vt 0.7150 0.0000
f 445/1325/332 446/1326/332 447/1327/332 448/1328/332
vn 0.0000 0.0000 1.0000
vt 0.7150 1.8300
vt 1.8850 1.8300
vt 1.8850 1.8450
vt 0.7150 1.8450
f 441/1329/333 442/1330/333 446/1331/333 445/1332/333
vn 0.0000 0.0000 -1.0000
vt 0.7150 1.8300
vt 0.7150 1.8450
vt 1.8850 1.8450
vt 1.8850 1.8300
f 444/1333/334 448/1334/334 447/1335/334 443/1336/334
vn -1.0000 0.0000 0.0000
vt -0.4600 1.8300
vt -0.4600 1.8450
vt 0.0000 1.8450
vt 0.0000 1.8300
f 441/1337/335 445/1338/335 448/1339/335 444/1340/335
vn 1.0000 0.0000 0.0000
vt -0.4600 1.8300
vt 0.0000 1.8300
vt 0.0000 1.8450
vt -0.4600 1.8450
f 442/1341/336 443/1342/336 447/1343/336 446/1344/336

g Aereo_120_base_inf
usemtl madeira
v 71.50000 146.00000 29.00000
v 188.50000 146.00000 29.00000
v 188.50000 146.00000 -0.00000
v 71.50000 146.00000 -0.00000
v 71.50000 147.50000 29.00000
v 188.50000 147.50000 29.00000
v 188.50000 147.50000 -0.00000
v 71.50000 147.50000 -0.00000
vn 0.0000 -1.0000 0.0000
vt 0.7150 -0.2900
vt 0.7150 0.0000
vt 1.8850 0.0000
vt 1.8850 -0.2900
f 449/1345/337 452/1346/337 451/1347/337 450/1348/337
vn 0.0000 1.0000 0.0000
vt 0.7150 -0.2900
vt 1.8850 -0.2900
vt 1.8850 0.0000
vt 0.7150 0.0000
f 453/1349/338 454/1350/338 455/1351/338 456/1352/338
vn 0.0000 0.0000 1.0000
vt 0.7150 1.4600
vt 1.8850 1.4600
vt 1.8850 1.4750
vt 0.7150 1.4750
f 449/1353/339 450/1354/339 454/1355/339 453/1356/339
vn 0.0000 0.0000 -1.0000
vt 0.7150 1.4600
vt 0.7150 1.4750
vt 1.8850 1.4750
vt 1.8850 1.4600
f 452/1357/340 456/1358/340 455/1359/340 451/1360/340
vn -1.0000 0.0000 0.0000
vt -0.2900 1.4600
vt -0.2900 1.4750
vt 0.0000 1.4750
vt 0.0000 1.4600
f 449/1361/341 453/1362/341 456/1363/341 452/1364/341
vn 1.0000 0.0000 0.0000
vt -0.2900 1.4600
vt 0.0000 1.4600
vt 0.0000 1.4750
vt -0.2900 1.4750
f 450/1365/342 451/1366/342 455/1367/342 454/1368/342

g Aereo_120_fundo
usemtl fundo
v 71.50000 147.50000 0.60000
v 188.50000 147.50000 0.60000
v 188.50000 147.50000 -0.00000
v 71.50000 147.50000 -0.00000
v 71.50000 218.50000 0.60000
v 188.50000 218.50000 0.60000
v 188.50000 218.50000 -0.00000
v 71.50000 218.50000 -0.00000
vn 0.0000 -1.0000 0.0000
vt 0.7150 -0.0060
vt 0.7150 0.0000
vt 1.8850 0.0000
vt 1.8850 -0.0060
f 457/1369/343 460/1370/343 459/1371/343 458/1372/343
vn 0.0000 1.0000 0.0000
vt 0.7150 -0.0060
vt 1.8850 -0.0060
vt 1.8850 0.0000
vt 0.7150 0.0000
f 461/1373/344 462/1374/344 463/1375/344 464/1376/344
vn 0.0000 0.0000 1.0000
vt 0.7150 1.4750
vt 1.8850 1.4750
vt 1.8850 2.1850
vt 0.7150 2.1850
f 457/1377/345 458/1378/345 462/1379/345 461/1380/345
vn 0.0000 0.0000 -1.0000
vt 0.7150 1.4750
vt 0.7150 2.1850
vt 1.8850 2.1850
vt 1.8850 1.4750
f 460/1381/346 464/1382/346 463/1383/346 459/1384/346
vn -1.0000 0.0000 0.0000
vt -0.0060 1.4750
vt -0.0060 2.1850
vt 0.0000 2.1850
vt 0.0000 1.4750
f 457/1385/347 461/1386/347 464/1387/347 460/1388/347
vn 1.0000 0.0000 0.0000
vt -0.0060 1.4750
vt 0.0000 1.4750
vt 0.0000 2.1850
vt -0.0060 2.1850
f 458/1389/348 459/1390/348 463/1391/348 462/1392/348

g Aereo_120_divisoria_sup_1.1
usemtl madeira
v 109.25000 184.50000 46.00000
v 110.75000 184.50000 46.00000
v 110.75000 184.50000 0.60000
v 109.25000 184.50000 0.60000
v 109.25000 218.50000 46.00000
v 110.75000 218.50000 46.00000
v 110.75000 218.50000 0.60000
v 109.25000 218.50000 0.60000
vn 0.0000 -1.0000 0.0000
vt 1.0925 -0.4600
vt 1.0925 -0.0060
vt 1.1075 -0.0060
vt 1.1075 -0.4600
f 465/1393/349 468/1394/349 467/1395/349 466/1396/349
vn 0.0000 1.0000 0.0000
vt 1.0925 -0.4600
vt 1.1075 -0.4600
vt 1.1075 -0.0060
vt 1.0925 -0.0060
f 469/1397/350 470/1398/350 471/1399/350 472/1400/350
vn 0.0000 0.0000 1.0000
vt 1.0925 1.8450
vt 1.1075 1.8450
vt 1.1075 2.1850
vt 1.0925 2.1850
f 465/1401/351 466/1402/351 470/1403/351 469/1404/351
vn 0.0000 0.0000 -1.0000
vt 1.0925 1.8450
vt 1.0925 2.1850
vt 1.1075 2.1850
vt 1.1075 1.8450
f 468/1405/352 472/1406/352 471/1407/352 467/1408/352
vn -1.0000 0.0000 0.0000
vt -0.4600 1.8450
vt -0.4600 2.1850
vt -0.0060 2.1850
vt -0.0060 1.8450
f 465/1409/353 469/1410/353 472/1411/353 468/1412/353
vn 1.0000 0.0000 0.0000
vt -0.4600 1.8450
vt -0.0060 1.8450
vt -0.0060 2.1850
vt -0.4600 2.1850
f 466/1413/354 467/1414/354 471/1415/354 470/1416/354

g Aereo_120_divisoria_inf_1.1
usemtl madeira
v 109.25000 147.50000 29.00000
v 110.75000 147.50000 29.00000
v 110.75000 147.50000 0.60000
v 109.25000 147.50000 0.60000
v 109.25000 183.00000 29.00000
v 110.75000 183.00000 29.00000
v 110.75000 183.00000 0.60000
v 109.25000 183.00000 0.60000
vn 0.0000 -1.0000 0.0000
vt 1.0925 -0.2900
vt 1.0925 -0.0060
vt 1.1075 -0.0060
vt 1.1075 -0.2900
f 473/1417/355 476/1418/355 475/1419/355 474/1420/355
vn 0.0000 1.0000 0.0000
vt 1.0925 -0.2900
vt 1.1075 -0.2900
vt 1.1075 -0.0060
vt 1.0925 -0.0060
f 477/1421/356 478/1422/356 479/1423/356 480/1424/356
vn 0.0000 0.0000 1.0000
vt 1.0925 1.4750
vt 1.1075 1.4750
vt 1.1075 1.8300
vt 1.0925 1.8300
f 473/1425/357 474/1426/357 478/1427/357 477/1428/357
vn 0.0000 0.0000 -1.0000
vt 1.0925 1.4750
vt 1.0925 1.8300
vt 1.1075 1.8300
vt 1.1075 1.4750
f 476/1429/358 480/1430/358 479/1431/358 475/1432/358
vn -1.0000 0.0000 0.0000
vt -0.2900 1.4750
vt -0.2900 1.8300
vt -0.0060 1.8300
vt -0.0060 1.4750
f 473/1433/359 477/1434/359 480/1435/359 476/1436/359
vn 1.0000 0.0000 0.0000
vt -0.2900 1.4750
vt -0.0060 1.4750
vt -0.0060 1.8300
vt -0.2900 1.8300
f 474/1437/360 475/1438/360 479/1439/360 478/1440/360

g Aereo_120_divisoria_sup_1.5
usemtl madeira
v 149.25000 184.50000 46.00000
v 150.75000 184.50000 46.00000
v 150.75000 184.50000 0.60000
v 149.25000 184.50000 0.60000
v 149.25000 218.50000 46.00000
v 150.75000 218.50000 46.00000
v 150.75000 218.50000 0.60000
v 149.25000 218.50000 0.60000
vn 0.0000 -1.0000 0.0000
vt 1.4925 -0.4600
vt 1.4925 -0.0060
vt 1.5075 -0.0060
vt 1.5075 -0.4600
f 481/1441/361 484/1442/361 483/1443/361 482/1444/361
vn 0.0000 1.0000 0.0000
vt 1.4925 -0.4600
vt 1.5075 -0.4600
vt 1.5075 -0.0060
vt 1.4925 -0.0060
f 485/1445/362 486/1446/362 487/1447/362 488/1448/362
vn 0.0000 0.0000 1.0000
vt 1.4925 1.8450
vt 1.5075 1.8450
vt 1.5075 2.1850
vt 1.4925 2.1850
f 481/1449/363 482/1450/363 486/1451/363 485/1452/363
vn 0.0000 0.0000 -1.0000
vt 1.4925 1.8450
vt 1.4925 2.1850
vt 1.5075 2.1850
vt 1.5075 1.8450
f 484/1453/364 488/1454/364 487/1455/364 483/1456/364
vn -1.0000 0.0000 0.0000
vt -0.4600 1.8450
vt -0.4600 2.1850
vt -0.0060 2.1850
vt -0.0060 1.8450
f 481/1457/365 485/1458/365 488/1459/365 484/1460/365
vn 1.0000 0.0000 0.0000
vt -0.4600 1.8450
vt -0.0060 1.8450
vt -0.0060 2.1850
vt -0.4600 2.1850
f 482/1461/366 483/1462/366 487/1463/366 486/1464/366

g Aereo_120_divisoria_inf_1.5
usemtl madeira
v 149.25000 147.50000 29.00000
v 150.75000 147.50000 29.00000
v 150.75000 147.50000 0.60000
v 149.25000 147.50000 0.60000
v 149.25000 183.00000 29.00000
v 150.75000 183.00000 29.00000
v 150.75000 183.00000 0.60000
v 149.25000 183.00000 0.60000
vn 0.0000 -1.0000 0.0000
vt 1.4925 -0.2900
vt 1.4925 -0.0060
vt 1.5075 -0.0060
vt 1.5075 -0.2900
f 489/1465/367 492/1466/367 491/1467/367 490/1468/367
vn 0.0000 1.0000 0.0000
vt 1.4925 -0.2900
vt 1.5075 -0.2900
vt 1.5075 -0.0060
vt 1.4925 -0.0060
f 493/1469/368 494/1470/368 495/1471/368 496/1472/368
vn 0.0000 0.0000 1.0000
vt 1.4925 1.4750
vt 1.5075 1.4750
vt 1.5075 1.8300
vt 1.4925 1.8300
f 489/1473/369 490/1474/369 494/1475/369 493/1476/369
vn 0.0000 0.0000 -1.0000
vt 1.4925 1.4750
vt 1.4925 1.8300
vt 1.5075 1.8300
vt 1.5075 1.4750
f 492/1477/370 496/1478/370 495/1479/370 491/1480/370
vn -1.0000 0.0000 0.0000
vt -0.2900 1.4750
vt -0.2900 1.8300
vt -0.0060 1.8300
vt -0.0060 1.4750
f 489/1481/371 493/1482/371 496/1483/371 492/1484/371
vn 1.0000 0.0000 0.0000
vt -0.2900 1.4750
vt -0.0060 1.4750
vt -0.0060 1.8300
vt -0.2900 1.8300
f 490/1485/372 491/1486/372 495/1487/372 494/1488/372

g Aereo_80_lateral_sup_1.9
usemtl madeira
v 190.00000 183.00000 46.00000
v 191.50000 183.00000 46.00000
v 191.50000 183.00000 -0.00000
v 190.00000 183.00000 -0.00000
v 190.00000 220.00000 46.00000
v 191.50000 220.00000 46.00000
v 191.50000 220.00000 -0.00000
v 190.00000 220.00000 -0.00000
vn 0.0000 -1.0000 0.0000
vt 1.9000 -0.4600
vt 1.9000 0.0000
vt 1.9150 0.0000
vt 1.9150 -0.4600
f 497/1489/373 500/1490/373 499/1491/373 498/1492/373
vn 0.0000 1.0000 0.0000
vt 1.9000 -0.4600
vt 1.9150 -0.4600
vt 1.9150 0.0000
vt 1.9000 0.0000
f 501/1493/374 502/1494/374 503/1495/374 504/1496/374
vn 0.0000 0.0000 1.0000
vt 1.9000 1.8300
vt 1.9150 1.8300
vt 1.9150 2.2000
vt 1.9000 2.2000
f 497/1497/375 498/1498/375 502/1499/375 501/1500/375
vn 0.0000 0.0000 -1.0000
vt 1.9000 1.8300
vt 1.9000 2.2000
vt 1.9150 2.2000
vt 1.9150 1.8300
f 500/1501/376 504/1502/376 503/1503/376 499/1504/376
vn -1.0000 0.0000 0.0000
vt -0.4600 1.8300
vt -0.4600 2.2000
vt 0.0000 2.2000
vt 0.0000 1.8300
f 497/1505/377 501/1506/377 504/1507/377 500/1508/377
vn 1.0000 0.0000 0.0000
vt -0.4600 1.8300
vt 0.0000 1.8300
vt 0.0000 2.2000
vt -0.4600 2.2000
f 498/1509/378 499/1510/378 503/1511/378 502/1512/378

g Aereo_80_lateral_inf_1.9
usemtl madeira
v 190.00000 146.00000 29.00000
v 191.50000 146.00000 29.00000
v 191.50000 146.00000 -0.00000
v 190.00000 146.00000 -0.00000
v 190.00000 183.00000 29.00000
v 191.50000 183.00000 29.00000
v 191.50000 183.00000 -0.00000
v 190.00000 183.00000 -0.00000
vn 0.0000 -1.0000 0.0000
vt 1.9000 -0.2900
vt 1.9000 0.0000
vt 1.9150 0.0000
vt 1.9150 -0.2900
f 505/1513/379 508/1514/379 507/1515/379 506/1516/379
vn 0.0000 1.0000 0.0000
vt 1.9000 -0.2900
vt 1.9150 -0.2900
vt 1.9150 0.0000
vt 1.9000 0.0000
f 509/1517/380 510/1518/380 511/1519/380 512/1520/380
vn 0.0000 0.0000 1.0000
vt 1.9000 1.4600
vt 1.9150 1.4600
vt 1.9150 1.8300
vt 1.9000 1.8300
f 505/1521/381 506/1522/381 510/1523/381 509/1524/381
vn 0.0000 0.0000 -1.0000
vt 1.9000 1.4600
vt 1.9000 1.8300
vt 1.9150 1.8300
vt 1.9150 1.4600
f 508/1525/382 512/1526/382 511/1527/382 507/1528/382
vn -1.0000 0.0000 0.0000
vt -0.2900 1.4600
vt -0.2900 1.8300
vt 0.0000 1.8300
vt 0.0000 1.4600
f 505/1529/383 509/1530/383 512/1531/383 508/1532/383
vn 1.0000 0.0000 0.0000
vt -0.2900 1.4600
vt 0.0000 1.4600
vt 0.0000 1.8300
vt -0.2900 1.8300
f 506/1533/384 507/1534/384 511/1535/384 510/1536/384

g Aereo_80_lateral_sup_2.685
usemtl madeira
v 268.50000 183.00000 46.00000
v 270.00000 183.00000 46.00000
v 270.00000 183.00000 -0.00000
v 268.50000 183.00000 -0.00000
v 268.50000 220.00000 46.00000
v 270.00000 220.00000 46.00000
v 270.00000 220.00000 -0.00000
v 268.50000 220.00000 -0.00000
vn 0.0000 -1.0000 0.0000
vt 2.6850 -0.4600
vt 2.6850 0.0000
vt 2.7000 0.0000
vt 2.7000 -0.4600
f 513/1537/385 516/1538/385 515/1539/385 514/1540/385
vn 0.0000 1.0000 0.0000
vt 2.6850 -0.4600
vt 2.7000 -0.4600
vt 2.7000 0.0000
vt 2.6850 0.0000
f 517/1541/386 518/1542/386 519/1543/386 520/1544/386
vn 0.0000 0.0000 1.0000
vt 2.6850 1.8300
vt 2.7000 1.8300
vt 2.7000 2.2000
vt 2.6850 2.2000
f 513/1545/387 514/1546/387 518/1547/387 517/1548/387
vn 0.0000 0.0000 -1.0000
vt 2.6850 1.8300
vt 2.6850 2.2000
vt 2.7000 2.2000
vt 2.7000 1.8300
f 516/1549/388 520/1550/388 519/1551/388 515/1552/388
vn -1.0000 0.0000 0.0000
vt -0.4600 1.8300
vt -0.4600 2.2000
vt 0.0000 2.2000
vt 0.0000 1.8300
f 513/1553/389 517/1554/389 520/1555/389 516/1556/389
vn 1.0000 0.0000 0.0000
vt -0.4600 1.8300
vt 0.0000 1.8300
vt 0.0000 2.2000
vt -0.4600 2.2000
f 514/1557/390 515/1558/390 519/1559/390 518/1560/390

g Aereo_80_lateral_inf_2.685
usemtl madeira
v 268.50000 146.00000 29.00000
v 270.00000 146.00000 29.00000
v 270.00000 146.00000 -0.00000
v 268.50000 146.00000 -0.00000
v 268.50000 183.00000 29.00000
v 270.00000 183.00000 29.00000
v 270.00000 183.00000 -0.00000
v 268.50000 183.00000 -0.00000
vn 0.0000 -1.0000 0.0000
vt 2.6850 -0.2900
vt 2.6850 0.0000
vt 2.7000 0.0000
vt 2.7000 -0.2900
f 521/1561/391 524/1562/391 523/1563/391 522/1564/391
vn 0.0000 1.0000 0.0000
vt 2.6850 -0.2900
vt 2.7000 -0.2900
vt 2.7000 0.0000
vt 2.6850 0.0000
f 525/1565/392 526/1566/392 527/1567/392 528/1568/392
vn 0.0000 0.0000 1.0000
vt 2.6850 1.4600
vt 2.7000 1.4600
vt 2.7000 1.8300
vt 2.6850 1.8300
f 521/1569/393 522/1570/393 526/1571/393 525/1572/393
vn 0.0000 0.0000 -1.0000
vt 2.6850 1.4600
vt 2.6850 1.8300
vt 2.7000 1.8300
vt 2.7000 1.4600
f 524/1573/394 528/1574/394 527/1575/394 523/1576/394
vn -1.0000 0.0000 0.0000
vt -0.2900 1.4600
vt -0.2900 1.8300
vt 0.0000 1.8300
vt 0.0000 1.4600
f 521/1577/395 525/1578/395 528/1579/395 524/1580/395
vn 1.0000 0.0000 0.0000
vt -0.2900 1.4600
vt 0.0000 1.4600
vt 0.0000 1.8300
vt -0.2900 1.8300
f 522/1581/396 523/1582/396 527/1583/396 526/1584/396

g Aereo_80_topo
usemtl madeira
v 191.50000 218.50000 46.00000
v 268.50000 218.50000 46.00000
v 268.50000 218.50000 -0.00000
v 191.50000 218.50000 -0.00000
v 191.50000 220.00000 46.00000
v 268.50000 220.00000 46.00000
v 268.50000 220.00000 -0.00000
v 191.50000 220.00000 -0.00000
vn 0.0000 -1.0000 0.0000
vt 1.9150 -0.4600
vt 1.9150 0.0000
vt 2.6850 0.0000
vt 2.6850 -0.4600
f 529/1585/397 532/1586/397 531/1587/397 530/1588/397
vn 0.0000 1.0000 0.0000
vt 1.9150 -0.4600
vt 2.6850 -0.4600
vt 2.6850 0.0000
vt 1.9150 0.0000
f 533/1589/398 534/1590/398 535/1591/398 536/1592/398
vn 0.0000 0.0000 1.0000
vt 1.9150 2.1850
vt 2.6850 2.1850
vt 2.6850 2.2000
vt 1.9150 2.2000
f 529/1593/399 530/1594/399 534/1595/399 533/1596/399
vn 0.0000 0.0000 -1.0000
vt 1.9150 2.1850
vt 1.9150 2.2000
vt 2.6850 2.2000
vt 2.6850 2.1850
f 532/1597/400 536/1598/400 535/1599/400 531/1600/400
vn -1.0000 0.0000 0.0000
vt -0.4600 2.1850
vt -0.4600 2.2000
vt 0.0000 2.2000
vt 0.0000 2.1850
f 529/1601/401 533/1602/401 536/1603/401 532/1604/401
vn 1.0000 0.0000 0.0000
vt -0.4600 2.1850
vt 0.0000 2.1850
vt 0.0000 2.2000
vt -0.4600 2.2000
f 530/1605/402 531/1606/402 535/1607/402 534/1608/402

g Aereo_80_base_sup
usemtl madeira
v 191.50000 183.00000 46.00000
v 268.50000 183.00000 46.00000
v 268.50000 183.00000 -0.00000
v 191.50000 183.00000 -0.00000
v 191.50000 184.50000 46.00000
v 268.50000 184.50000 46.00000
v 268.50000 184.50000 -0.00000
v 191.50000 184.50000 -0.00000
vn 0.0000 -1.0000 0.0000
vt 1.9150 -0.4600
vt 1.9150 0.0000
vt 2.6850 0.0000
vt 2.6850 -0.4600
f 537/1609/403 540/1610/403 539/1611/403 538/1612/403
vn 0.0000 1.0000 0.0000
vt 1.9150 -0.4600
vt 2.6850 -0.4600
vt 2.6850 0.0000
vt 1.9150 0.0000
f 541/1613/404 542/1614/404 543/1615/404 544/1616/404
vn 0.0000 0.0000 1.0000
vt 1.9150 1.8300
vt 2.6850 1.8300
vt 2.6850 1.8450
vt 1.9150 1.8450
f 537/1617/405 538/1618/405 542/1619/405 541/1620/405
vn 0.0000 0.0000 -1.0000
vt 1.9150 1.8300
vt 1.9150 1.8450
vt 2.6850 1.8450
vt 2.6850 1.8300
f 540/1621/406 544/1622/406 543/1623/406 539/1624/406
vn -1.0000 0.0000 0.0000
vt -0.4600 1.8300
vt -0.4600 1.8450
vt 0.0000 1.8450
vt 0.0000 1.8300
f 537/1625/407 541/1626/407 544/1627/407 540/1628/407
vn 1.0000 0.0000 0.0000
vt -0.4600 1.8300
vt 0.0000 1.8300
vt 0.0000 1.8450
vt -0.4600 1.8450
f 538/1629/408 539/1630/408 543/1631/408 542/1632/408

g Aereo_80_base_inf
usemtl madeira
v 191.50000 146.00000 29.00000
v 268.50000 146.00000 29.00000
v 268.50000 146.00000 -0.00000
v 191.50000 146.00000 -0.00000
v 191.50000 147.50000 29.00000
v 268.50000 147.50000 29.00000
v 268.50000 147.50000 -0.00000
v 191.50000 147.50000 -0.00000
vn 0.0000 -1.0000 0.0000
vt 1.9150 -0.2900
vt 1.9150 0.0000
vt 2.6850 0.0000
vt 2.6850 -0.2900
f 545/1633/409 548/1634/409 547/1635/409 546/1636/409
vn 0.0000 1.0000 0.0000
vt 1.9150 -0.2900
vt 2.6850 -0.2900
vt 2.6850 0.0000
vt 1.9150 0.0000
f 549/1637/410 550/1638/410 551/1639/410 552/1640/410
vn 0.0000 0.0000 1.0000
vt 1.9150 1.4600
vt 2.6850 1.4600
vt 2.6850 1.4750
vt 1.9150 1.4750
f 545/1641/411 546/1642/411 550/1643/411 549/1644/411
vn 0.0000 0.0000 -1.0000
vt 1.9150 1.4600
vt 1.9150 1.4750
vt 2.6850 1.4750
vt 2.6850 1.4600
f 548/1645/412 552/1646/412 551/1647/412 547/1648/412
vn -1.0000 0.0000 0.0000
vt -0.2900 1.4600
vt -0.2900 1.4750
vt 0.0000 1.4750
vt 0.0000 1.4600
f 545/1649/413 549/1650/413 552/1651/413 548/1652/413
vn 1.0000 0.0000 0.0000
vt -0.2900 1.4600
vt 0.0000 1.4600
vt 0.0000 1.4750
vt -0.2900 1.4750
f 546/1653/414 547/1654/414 551/1655/414 550/1656/414

g Aereo_80_fundo
usemtl fundo
v 191.50000 147.50000 0.60000
v 268.50000 147.50000 0.60000
v 268.50000 147.50000 -0.00000
v 191.50000 147.50000 -0.00000
v 191.50000 218.50000 0.60000
v 268.50000 218.50000 0.60000
v 268.50000 218.50000 -0.00000
v 191.50000 218.50000 -0.00000
vn 0.0000 -1.0000 0.0000
vt 1.9150 -0.0060
vt 1.9150 0.0000
vt 2.6850 0.0000
vt 2.6850 -0.0060
f 553/1657/415 556/1658/415 555/1659/415 554/1660/415
vn 0.0000 1.0000 0.0000
vt 1.9150 -0.0060
vt 2.6850 -0.0060
vt 2.6850 0.0000
vt 1.9150 0.0000
f 557/1661/416 558/1662/416 559/1663/416 560/1664/416
vn 0.0000 0.0000 1.0000
vt 1.9150 1.4750
vt 2.6850 1.4750
vt 2.6850 2.1850
vt 1.9150 2.1850
f 553/1665/417 554/1666/417 558/1667/417 557/1668/417
vn 0.0000 0.0000 -1.0000
vt 1.9150 1.4750
vt 1.9150 2.1850
vt 2.6850 2.1850
vt 2.6850 1.4750
f 556/1669/418 560/1670/418 559/1671/418 555/1672/418
vn -1.0000 0.0000 0.0000
vt -0.0060 1.4750
vt -0.0060 2.1850
vt 0.0000 2.1850
vt 0.0000 1.4750
f 553/1673/419 557/1674/419 560/1675/419 556/1676/419
vn 1.0000 0.0000 0.0000
vt -0.0060 1.4750
vt 0.0000 1.4750
vt 0.0000 2.1850
vt -0.0060 2.1850
f 554/1677/420 555/1678/420 559/1679/420 558/1680/420

g Aereo_80_divisoria_sup_2.3
usemtl madeira
v 229.25000 184.50000 46.00000
v 230.75000 184.50000 46.00000
v 230.75000 184.50000 0.60000
v 229.25000 184.50000 0.60000
v 229.25000 218.50000 46.00000
v 230.75000 218.50000 46.00000
v 230.75000 218.50000 0.60000
v 229.25000 218.50000 0.60000
vn 0.0000 -1.0000 0.0000
vt 2.2925 -0.4600
vt 2.2925 -0.0060
vt 2.3075 -0.0060
vt 2.3075 -0.4600
f 561/1681/421 564/1682/421 563/1683/421 562/1684/421
vn 0.0000 1.0000 0.0000
vt 2.2925 -0.4600
vt 2.3075 -0.4600
vt 2.3075 -0.0060
vt 2.2925 -0.0060
f 565/1685/422 566/1686/422 567/1687/422 568/1688/422
vn 0.0000 0.0000 1.0000
vt 2.2925 1.8450
vt 2.3075 1.8450
vt 2.3075 2.1850
vt 2.2925 2.1850
f 561/1689/423 562/1690/423 566/1691/423 565/1692/423
vn 0.0000 0.0000 -1.0000
vt 2.2925 1.8450
vt 2.2925 2.1850
vt 2.3075 2.1850
vt 2.3075 1.8450
f 564/1693/424 568/1694/424 567/1695/424 563/1696/424
vn -1.0000 0.0000 0.0000
vt -0.4600 1.8450
vt -0.4600 2.1850
vt -0.0060 2.1850
vt -0.0060 1.8450
f 561/1697/425 565/1698/425 568/1699/425 564/1700/425
vn 1.0000 0.0000 0.0000
vt -0.4600 1.8450
vt -0.0060 1.8450
vt -0.0060 2.1850
vt -0.4600 2.1850
f 562/1701/426 563/1702/426 567/1703/426 566/1704/426

g Aereo_80_divisoria_inf_2.3
usemtl madeira
v 229.25000 147.50000 29.00000
v 230.75000 147.50000 29.00000
v 230.75000 147.50000 0.60000
v 229.25000 147.50000 0.60000
v 229.25000 183.00000 29.00000
v 230.75000 183.00000 29.00000
v 230.75000 183.00000 0.60000
v 229.25000 183.00000 0.60000
vn 0.0000 -1.0000 0.0000
vt 2.2925 -0.2900
vt 2.2925 -0.0060
vt 2.3075 -0.0060
vt 2.3075 -0.2900
f 569/1705/427 572/1706/427 571/1707/427 570/1708/427
vn 0.0000 1.0000 0.0000
vt 2.2925 -0.2900
vt 2.3075 -0.2900
vt 2.3075 -0.0060
vt 2.2925 -0.0060
f 573/1709/428 574/1710/428 575/1711/428 576/1712/428
vn 0.0000 0.0000 1.0000
vt 2.2925 1.4750
vt 2.3075 1.4750
vt 2.3075 1.8300
vt 2.2925 1.8300
f 569/1713/429 570/1714/429 574/1715/429 573/1716/429
vn 0.0000 0.0000 -1.0000
vt 2.2925 1.4750
vt 2.2925 1.8300
vt 2.3075 1.8300
vt 2.3075 1.4750
f 572/1717/430 576/1718/430 575/1719/430 571/1720/430
vn -1.0000 0.0000 0.0000
vt -0.2900 1.4750
vt -0.2900 1.8300
vt -0.0060 1.8300
vt -0.0060 1.4750
f 569/1721/431 573/1722/431 576/1723/431 572/1724/431
vn 1.0000 0.0000 0.0000
vt -0.2900 1.4750
vt -0.0060 1.4750
vt -0.0060 1.8300
vt -0.2900 1.8300
f 570/1725/432 571/1726/432 575/1727/432 574/1728/432
